<?xml version="1.0" standalone="no"?>
<!DOCTYPE svg PUBLIC "-//W3C//DTD SVG 1.1//EN" "http://www.w3.org/Graphics/SVG/1.1/DTD/svg11.dtd" >
<svg>
<metadata>
Created by FontForge 20090914 at Mon Sep 12 20:52:31 2022
 By www-data
Copyright (c) 2014 by &#194;&#169; 2009 Designed by Svetoslav Simov &#194;&#169; Fontfabric, Inc. All rights reserved.
</metadata>
<defs>
<font id="UniSansHeavyCaps" horiz-adv-x="1204" >
  <font-face 
    font-family="Uni Sans Heavy Caps"
    font-weight="900"
    font-variant="small-caps"
    font-stretch="normal"
    units-per-em="2048"
    panose-1="0 0 5 0 0 0 0 0 0 0"
    ascent="1548"
    descent="-500"
    x-height="1450"
    cap-height="1450"
    bbox="-66 -520 2085 2042"
    underline-thickness="102"
    underline-position="-102"
    unicode-range="U+000D-U+25FC"
  />
<missing-glyph horiz-adv-x="748" 
d="M68 0v1365h544v-1365h-544zM136 68h408v1229h-408v-1229z" />
    <glyph glyph-name=".notdef" horiz-adv-x="748" 
d="M68 0v1365h544v-1365h-544zM136 68h408v1229h-408v-1229z" />
    <glyph glyph-name="glyph1" horiz-adv-x="2048" 
 />
    <glyph glyph-name="glyph1" horiz-adv-x="2048" 
 />
    <glyph glyph-name="uni000D" unicode="&#xd;" horiz-adv-x="2048" 
 />
    <glyph glyph-name="space" unicode=" " horiz-adv-x="372" 
 />
    <glyph glyph-name="exclam" unicode="!" horiz-adv-x="595" 
d="M88 1458h418l-21 -1007h-376zM96 182c0 57.333 19.667 106.166 59 146.499s87.333 60.5 144 60.5c57.333 0 106.166 -20.167 146.499 -60.5s60.5 -89.166 60.5 -146.499c0 -56.667 -20.167 -104.5 -60.5 -143.5s-89.166 -58.5 -146.499 -58.5
c-56.667 0 -104.667 19.5 -144 58.5s-59 86.833 -59 143.5z" />
    <glyph glyph-name="quotedbl" unicode="&#x22;" horiz-adv-x="946" 
d="M96 858v594h355l-43 -594h-312zM516 858v594h354l-41 -594h-313z" />
    <glyph glyph-name="numbersign" unicode="#" horiz-adv-x="1327" 
d="M45 346l88 299h152l18 68h-151l92 311h151l97 330h323l-96 -330h86l96 330h338l-98 -330h135l-90 -311h-137l-19 -68h135l-88 -299h-137l-102 -348h-324l100 348h-86l-100 -348h-334l103 348h-152zM596 618h121l33 121h-119z" />
    <glyph glyph-name="dollar" unicode="$" horiz-adv-x="1167" 
d="M49 283l262 179.997c25.333 -35.333 49.166 -59.833 71.499 -73.5s48.5 -22.834 78.5 -27.501v199c-261.333 61.333 -390.333 212.333 -387 453c6 108.667 44.833 198.667 116.5 270s161.834 119 270.501 143v121h264v-118c73.333 -9.33301 137.333 -32.333 192 -69
s108.667 -95 162 -175l-245 -156c-24 40.667 -60.333 65.334 -109 74.001v-230c48 -11.333 90.333 -24.166 127 -38.499s72.667 -34 108 -59s64.166 -53.667 86.499 -86s39.833 -72.666 52.5 -120.999s17.667 -102.833 15 -163.5
c-8.66699 -105.333 -49 -192.833 -121 -262.5s-161.333 -117.5 -268 -143.5v-133h-264v131c-83.333 2.66699 -160.166 28.834 -230.499 78.501s-130.833 118.5 -181.5 206.5zM397 1010c-2 -62 24.001 -102.332 78.001 -120.999v233
c-24.667 -13.333 -43.834 -29.833 -57.501 -49.5s-20.5 -39.834 -20.5 -60.501v-2zM713.001 333.998c24.667 13.333 43.833 29.832 57.5 49.499s20.5 39.834 20.5 60.501v2c2 62 -24 102.333 -78 121v-233z" />
    <glyph glyph-name="percent" unicode="%" horiz-adv-x="1515" 
d="M53 1112c0 108 28.167 194.668 84.5 260.001s129.166 98 218.499 98c99.333 0 175.833 -31.333 229.5 -94s80.5 -152 80.5 -268c0 -110.667 -29 -198.834 -87 -264.501s-132.333 -98.5 -223 -98.5c-97.333 0 -172.166 31.333 -224.499 94s-78.5 153.667 -78.5 273z
M113 14.001l1007 1557l264 -176l-1007 -1551zM283 1110c0 -80.667 23.667 -121 71 -121c45.333 0 68 39.667 68 119c0 82 -22.667 123 -68 123c-21.333 0 -38.5 -10 -51.5 -30s-19.5 -50.333 -19.5 -91zM852 354.001c0 108 28.1689 194.834 84.502 260.501
s129.166 98.5 218.499 98.5c99.333 0 175.666 -31.5 228.999 -94.5s80 -152.5 80 -268.5c0 -110.667 -28.833 -198.667 -86.5 -264s-131.834 -98 -222.501 -98c-97.333 0 -172.166 31.167 -224.499 93.5s-78.5 153.166 -78.5 272.499zM1081 352.002
c0 -80.667 23.999 -121 71.999 -121c45.333 0 68 39.667 68 119c0 82 -22.667 123 -68 123c-21.333 0 -38.666 -10.167 -51.999 -30.5s-20 -50.5 -20 -90.5z" />
    <glyph glyph-name="ampersand" unicode="&#x26;" horiz-adv-x="1396" 
d="M59 461c0 84.667 18.1709 155.668 54.5039 213.001s90.5 107.666 162.5 150.999c-40.667 42.667 -69.834 89 -87.501 139s-24.167 98.333 -19.5 145s18.667 92 42 136s53.666 82.167 90.999 114.5s81.833 57.833 133.5 76.5s106.5 27.334 164.5 26.001
c107.333 -3.33301 199.666 -39.666 276.999 -108.999s116 -158.666 116 -267.999c0 -78 -15.333 -143 -46 -195s-74 -98 -130 -138l121 -150l131 113l205 -262l-135 -111l272 -340h-430l-98 117c-48.667 -42.667 -103.334 -74.834 -164.001 -96.501
s-121.167 -32.334 -181.5 -32.001s-119.5 11.166 -177.5 32.499s-109.167 51.333 -153.5 90s-80 88.167 -107 148.5s-40.5 126.833 -40.5 199.5zM410.004 435.001c2 -26 10.668 -49.332 26.001 -69.999c26 -36.667 63.167 -55.167 111.5 -55.5s89.166 18.167 122.499 55.5
l-178 208c-28.667 -14.667 -50 -34.834 -64 -60.501s-20 -51.5 -18 -77.5zM498.005 1079c0 -11.333 4.16699 -24.8301 12.5 -40.4971s16.5 -28.834 24.5 -39.501s20.667 -26.334 38 -47.001c34.667 23.333 60.167 45.166 76.5 65.499s24.5 42.833 24.5 67.5
c0 24 -7.83301 44.833 -23.5 62.5s-34.5 26.5 -56.5 26.5c-26 0 -48.5 -9.33301 -67.5 -28s-28.5 -41 -28.5 -67z" />
    <glyph glyph-name="quotesingle" unicode="'" horiz-adv-x="524" 
d="M96 856v594h348l-30 -594h-318z" />
    <glyph glyph-name="parenleft" unicode="(" horiz-adv-x="659" 
d="M59 711c0 164.667 28.167 328.335 84.5 491.002s138.166 304.667 245.499 426l242 -158c-167.333 -252.667 -249.833 -509.334 -247.5 -770.001s86.833 -519.334 253.5 -776.001l-260 -174c-103.333 145.333 -182.166 301.833 -236.499 469.5s-81.5 331.5 -81.5 491.5z
" />
    <glyph glyph-name="parenright" unicode=")" horiz-adv-x="647" 
d="M25 -80c106 170 178.168 341.833 216.501 515.5s39.666 347.167 3.99902 520.5s-109.167 337.333 -220.5 492l233 156c108 -122 190 -260.667 246 -416s84 -314.333 84 -477c0 -160.667 -27 -324 -81 -490s-133 -321.667 -237 -467z" />
    <glyph glyph-name="asterisk" unicode="*" horiz-adv-x="976" 
d="M49 1010l94 323l209 -98l-30 219h335l-39 -217l213 92l97 -325l-230 -29l166 -160l-264 -203l-111 207l-106 -207l-274 199l165 172z" />
    <glyph glyph-name="plus" unicode="+" horiz-adv-x="1159" 
d="M55 483v348h359v349h346v-349h344v-348h-344v-350h-346v350h-359z" />
    <glyph glyph-name="comma" unicode="," horiz-adv-x="589" 
d="M-45 -305l174 522h385l-205 -522h-354z" />
    <glyph glyph-name="hyphen" unicode="-" horiz-adv-x="827" 
d="M94 420v348h639v-348h-639z" />
    <glyph glyph-name="period" unicode="." horiz-adv-x="526" 
d="M59 195c0 56.667 19.667 104.5 59 143.5s87.333 58.5 144 58.5s105 -19.667 145 -59s60 -87 60 -143c0 -57.333 -20 -106.166 -60 -146.499s-88.333 -60.5 -145 -60.5s-104.667 20.167 -144 60.5s-59 89.166 -59 146.499z" />
    <glyph glyph-name="slash" unicode="/" horiz-adv-x="1007" 
d="M41 -27l604 1592l322 -113l-602 -1595z" />
    <glyph glyph-name="zero" unicode="0" horiz-adv-x="1220" 
d="M86 424v600c0 60 10.333 115 31 165s48.167 92 82.5 126s74.333 62.833 120 86.5s92.834 41 141.501 52s98.334 16.5 149.001 16.5s100.667 -5.5 150 -16.5s96.666 -28.333 141.999 -52s85.166 -52.5 119.499 -86.5s61.833 -76 82.5 -126s31 -105 31 -165v-600
c0 -59.333 -10.333 -113.833 -31 -163.5s-48.167 -91.5 -82.5 -125.5s-74.166 -62.833 -119.499 -86.5s-92.666 -41 -141.999 -52s-99.333 -16.5 -150 -16.5s-100.334 5.5 -149.001 16.5s-95.834 28.333 -141.501 52s-85.667 52.5 -120 86.5s-61.833 75.833 -82.5 125.5
s-31 104.167 -31 163.5zM434 420c0 -40 17.5 -71.4971 52.5 -94.4971s76.167 -34.5 123.5 -34.5c46 0 86.833 11.667 122.5 35s53.5 54.666 53.5 93.999v594c0 41.333 -18 74.166 -54 98.499s-76.667 36.5 -122 36.5c-46 0 -86.833 -12.333 -122.5 -37
s-53.5 -57.334 -53.5 -98.001v-594z" />
    <glyph glyph-name="one" unicode="1" horiz-adv-x="763" 
d="M-2 1044l385 406h276v-1450h-329v973l-140 -96z" />
    <glyph glyph-name="two" unicode="2" horiz-adv-x="1140" 
d="M33 193l589.999 663c54.667 62 72.667 122.333 54 181c-13.333 42 -41.333 71.333 -84 88c-53.333 20.667 -107 13 -161 -23c-37.333 -24.667 -69.333 -61.667 -96 -111l-275 150c57.333 109.333 131.333 191.5 222 246.5s188 82.5 292 82.5
c77.333 0 147.333 -12.5 210 -37.5s113.834 -58.5 153.501 -100.5s70 -89.5 91 -142.5s31.5 -108.167 31.5 -165.5c0 -158 -60 -293.333 -180 -406l-320 -303l170 35h328v-348h-934z" />
    <glyph glyph-name="three" unicode="3" horiz-adv-x="1105" 
d="M33 242l237.001 219.003c25.333 -40.667 59.166 -71.334 101.499 -92.001s86.5 -31 132.5 -31c50.667 0 93.667 11.333 129 34s53 53 53 91c0 39.333 -13.833 72.333 -41.5 99s-66.5 40 -116.5 40h-225v293h217c29.333 0 53.666 10.833 72.999 32.5s29.333 45.667 30 72
s-5 50.833 -17 73.5c-21.333 32.667 -52.833 53 -94.5 61s-84.5 3.83301 -128.5 -12.5s-81 -41.166 -111 -74.499l-213 188c59.333 73.333 129.666 130.833 210.999 172.5s163.333 62.5 246 62.5c46.667 0 91 -4.33301 133 -13s82.667 -22.334 122 -41.001
s74.666 -44.834 105.999 -78.501s56.333 -73.834 75 -120.501c20 -50 30.833 -102.5 32.5 -157.5s-8.66602 -109 -30.999 -162s-56.833 -94.167 -103.5 -123.5c35.333 -18 66 -40.833 92 -68.5s46.167 -57.167 60.5 -88.5s24.833 -62.166 31.5 -92.499s10 -60.5 10 -90.5
c0 -55.333 -9.66699 -107.333 -29 -156s-45.833 -90.834 -79.5 -126.501s-72.667 -66.667 -117 -93s-92.166 -46 -143.499 -59s-103.666 -19.5 -156.999 -19.5c-98.667 0 -191.167 21.833 -277.5 65.5s-155.5 109.167 -207.5 196.5z" />
    <glyph glyph-name="four" unicode="4" horiz-adv-x="1175" 
d="M0 530l676 920h301v-838h135v-297h-135v-315h-350v315h-510zM397 608h256l4 371z" />
    <glyph glyph-name="five" unicode="5" horiz-adv-x="1107" 
d="M57 248l259.998 205.001c32.667 -40 71.334 -68.333 116.001 -85s86 -21.334 124 -14.001s70.833 24.833 98.5 52.5s42.5 62.167 44.5 103.5c4 70 -12 123.333 -48 160s-83.333 55 -142 55c-96.667 0 -175.334 -40.333 -236.001 -121h-168v846h861v-322h-568v-163
c71.333 24 139.333 36.167 204 36.5s124.834 -12.167 180.501 -37.5s103.834 -58.833 144.501 -100.5s72.667 -92.5 96 -152.5s35 -124.333 35 -193c0 -69.333 -11 -135.333 -33 -198s-54.5 -119.667 -97.5 -171s-100.333 -92.333 -172 -123s-153.167 -46 -244.5 -46
c-87.333 0 -171 22 -251 66s-148 111.333 -204 202z" />
    <glyph glyph-name="six" unicode="6" horiz-adv-x="1196" 
d="M84 436l0.00488281 577.996c0 70 15.5 134.333 46.5 193s72.167 106.834 123.5 144.501s109 66.834 173 87.501s130 31 198 31c98.667 0 188.667 -22.667 270 -68s143.333 -112 186 -200l-256 -147c-21.333 34 -49.833 59.5 -85.5 76.5s-73.834 25.5 -114.501 25.5
c-52 0 -96.833 -13.167 -134.5 -39.5s-56.5 -61.5 -56.5 -105.5v-150c45.333 32.667 95.166 55.667 149.499 69s107.666 17.333 159.999 12s103.166 -19.166 152.499 -41.499s92.5 -51.166 129.5 -86.499s66.833 -78.5 89.5 -129.5s34 -105.5 34 -163.5v-86
c0 -72 -14.833 -137.5 -44.5 -196.5s-69.167 -107 -118.5 -144s-105.333 -65.5 -168 -85.5s-128.334 -30 -197.001 -30s-134.667 9.83301 -198 29.5s-120.5 48 -171.5 85s-91.667 85 -122 144s-45.5 124.833 -45.5 197.5zM434.005 423.996c0 -31.333 12.5 -57.667 37.5 -79
s55.333 -34.5 91 -39.5s71.5 -5.16699 107.5 -0.5s66.5 17.834 91.5 39.501s37.5 48.167 37.5 79.5v108c0 29.333 -12.5 54 -37.5 74s-55.5 32.167 -91.5 36.5s-71.833 4.16602 -107.5 -0.500977s-66 -17 -91 -37s-37.5 -44.333 -37.5 -73v-108z" />
    <glyph glyph-name="seven" unicode="7" horiz-adv-x="1085" 
d="M47 1102v348h936l98 -197l-559 -1253h-393l471 1102h-553z" />
    <glyph glyph-name="eight" unicode="8" horiz-adv-x="1228" 
d="M61 436c0 59.333 16.8271 118.831 50.4941 178.498s81.834 112.834 144.501 159.501c-44 29.333 -76.167 67.666 -96.5 114.999s-30.5 95.666 -30.5 144.999c0 64.667 10.667 122.834 32 174.501s48.5 93.5 81.5 125.5s71 58.5 114 79.5s84.833 35.667 125.5 44
s80.667 12.5 120 12.5h29c49.333 0 96.5 -5.16699 141.5 -15.5s87.833 -27 128.5 -50s75.834 -51.5 105.501 -85.5s53.334 -76.667 71.001 -128s26.5 -108.333 26.5 -171c0 -37.333 -11.167 -80.833 -33.5 -130.5s-52.833 -87.5 -91.5 -113.5
c61.333 -31.333 108.333 -78.166 141 -140.499s48.334 -121.833 47.001 -178.5c-3.33301 -152 -49.666 -269.5 -138.999 -352.5s-221.666 -124.5 -396.999 -124.5h-29c-168 0 -300.167 39.833 -396.5 119.5s-144.5 191.834 -144.5 336.501zM445.994 403.998
c27.333 -52.667 78.6689 -79.999 154.002 -81.999h35c76.667 0 129 27.167 157 81.5s26.333 107.666 -5 159.999s-80 75.5 -146 69.5h-47c-64.667 2 -112.334 -22.5 -143.001 -73.5s-32.334 -102.833 -5.00098 -155.5zM464.997 1056.5
c-4.66699 -20.333 -4.16699 -40.5 1.5 -60.5s14.167 -38.333 25.5 -55s27.666 -30.167 48.999 -40.5s45.666 -15.5 72.999 -15.5c30.667 0 57.834 5 81.501 15s41.5 23.167 53.5 39.5s20.833 34.333 26.5 54s5.83398 39.667 0.500977 60s-13.5 38.833 -24.5 55.5
s-27 30.834 -48 42.501s-44.5 18.167 -70.5 19.5h-31c-26 -0.666992 -49 -6.33398 -69 -17.001s-35.167 -24.5 -45.5 -41.5s-17.833 -35.667 -22.5 -56z" />
    <glyph glyph-name="nine" unicode="9" 
d="M55 936l-0.00585938 85.999c0 72 14.833 137.167 44.5 195.5s69.334 105.5 119.001 141.5s105.834 63.5 168.501 82.5s128.334 28.5 197.001 28.5s134.5 -9.5 197.5 -28.5s119.667 -46.333 170 -82s90.833 -82.667 121.5 -141s46.334 -123.833 47.001 -196.5v-578
c0 -72 -15.333 -137.833 -46 -197.5s-71.334 -108.5 -122.001 -146.5s-107.667 -67.5 -171 -88.5s-129 -31.5 -197 -31.5c-106.667 0 -204.667 23.333 -294 70s-156 115.334 -200 206.001l260 172c24.667 -41.333 57.667 -71.833 99 -91.5s85 -29.5 131 -29.5
c51.333 0 95.833 13.167 133.5 39.5s56.5 59.5 56.5 99.5v150c-45.333 -32.667 -95.166 -55.834 -149.499 -69.501s-107.666 -18 -159.999 -13s-103.166 18.833 -152.499 41.5s-92.5 51.834 -129.5 87.501s-66.833 79 -89.5 130s-34 105.5 -34 163.5zM405.994 925.999
c0 -29.333 12.5 -54.002 37.5 -74.002s55.333 -32.167 91 -36.5s71.334 -4.16602 107.001 0.500977s66 17 91 37s37.5 44.333 37.5 73v108c0 28.667 -12.5 53 -37.5 73s-55.333 32.333 -91 37s-71.334 4.83398 -107.001 0.500977s-66 -16.5 -91 -36.5
s-37.5 -44.667 -37.5 -74v-108z" />
    <glyph glyph-name="colon" unicode=":" horiz-adv-x="567" 
d="M80 217c0 58.667 19.833 107.5 59.5 146.5s88.167 58.5 145.5 58.5c56.667 0 104.5 -19.333 143.5 -58s58.5 -87.667 58.5 -147c0 -56.667 -19.667 -105 -59 -145s-87 -60 -143 -60c-56.667 0 -105 20 -145 60s-60 88.333 -60 145zM80 805c0 56 20 103.501 60 142.501
s88.333 58.5 145 58.5s104.5 -19.333 143.5 -58s58.5 -86.334 58.5 -143.001c0 -57.333 -19.5 -106.166 -58.5 -146.499s-86.833 -60.5 -143.5 -60.5s-105 20.167 -145 60.5s-60 89.166 -60 146.499z" />
    <glyph glyph-name="semicolon" unicode=";" horiz-adv-x="598" 
d="M14 -262l125 522h383l-188 -522h-320zM92 782c0 57.333 19.167 105.17 57.5 143.503s87.5 57.5 147.5 57.5c58 0 106 -19.333 144 -58s57 -86.334 57 -143.001c0 -58.667 -19 -107.834 -57 -147.501s-86 -59.5 -144 -59.5c-60 0 -109.167 19.667 -147.5 59
s-57.5 88.666 -57.5 147.999z" />
    <glyph glyph-name="less" unicode="&#x3c;" horiz-adv-x="911" 
d="M51 487v224l750 481v-408l-330 -186l330 -178v-408z" />
    <glyph glyph-name="equal" unicode="=" horiz-adv-x="1083" 
d="M96 236v319h889v-319h-889zM96 653v318h889v-318h-889z" />
    <glyph glyph-name="greater" unicode="&#x3e;" horiz-adv-x="911" 
d="M109 12v408l346 178l-346 186v408l751 -481v-224z" />
    <glyph glyph-name="question" unicode="?" horiz-adv-x="1005" 
d="M43 1196c30 57.333 66.834 106.332 110.501 146.999s89.334 70.834 137.001 90.501s97.667 31.5 150 35.5s102.666 0.166992 150.999 -11.5s94.5 -30.667 138.5 -57s82.333 -58.166 115 -95.499s58.667 -81.333 78 -132s29 -104.334 29 -161.001
c0 -36.667 -4.33301 -72.5 -13 -107.5s-22.334 -68.833 -41.001 -101.5s-41.5 -62.167 -68.5 -88.5s-60.167 -49 -99.5 -68s-82.666 -31.833 -129.999 -38.5l-20 -239h-308l-20 467c60 -22.667 115.167 -31.5 165.5 -26.5s92 23.833 125 56.5s49.5 73.667 49.5 123
c0 35.333 -13.833 64.5 -41.5 87.5s-59.834 36.833 -96.501 41.5s-74.5 -1.5 -113.5 -18.5s-68.5 -44.167 -88.5 -81.5zM240.001 132.999c0 54 17.832 98.167 53.499 132.5s79.834 51.5 132.501 51.5c52 0 95.667 -17.167 131 -51.5s53 -78.5 53 -132.5
c0 -52 -17.833 -96 -53.5 -132s-79.167 -54 -130.5 -54c-52 0 -96 18 -132 54s-54 80 -54 132z" />
    <glyph glyph-name="at" unicode="@" horiz-adv-x="1556" 
d="M70 698c5.33301 74 20.3311 147.002 44.998 219.002s58.834 140 102.501 204s94.167 120.5 151.5 169.5s124 87.833 200 116.5s156 43 240 43c71.333 0 143 -9 215 -27c88.667 -26 171.334 -67.833 248.001 -125.5s133.334 -121.5 170.001 -191.5
c40.667 -78.667 62.167 -166.167 64.5 -262.5s-14.167 -188.833 -49.5 -277.5s-86 -161.334 -152 -218.001c-32.667 -30 -74 -54.833 -124 -74.5s-99.667 -29.5 -149 -29.5c-59.333 0 -109 14.333 -149 43c-41.333 -26 -90 -39 -146 -39
c-107.333 0 -194.5 37.5 -261.5 112.5s-100.5 169.167 -100.5 282.5c0 84.667 17.5 165.167 52.5 241.5s83.333 138.166 145 185.499s128.167 71 199.5 71c75.333 0 147 -27.333 215 -82l37 43l147 -37c-32.667 46 -82.167 81.333 -148.5 106s-131.5 37 -195.5 37
c-79.333 0 -152 -16.667 -218 -50s-119.833 -77.166 -161.5 -131.499s-73.834 -114.5 -96.501 -180.5s-34 -133 -34 -201c0 -106.667 26.167 -198.667 78.5 -276s123 -129.333 212 -156s192.5 -24 310.5 8l55 -196c-90.667 -28.667 -176 -43 -256 -43
c-90 0 -175.5 17.333 -256.5 52s-151.167 82.5 -210.5 143.5s-105.333 136.667 -138 227s-46.667 188.166 -42 293.499zM654.998 758.002c-21.333 -70 -18.666 -132.999 8.00098 -188.999c6.66699 -13.333 14.334 -25.666 23.001 -36.999
c19.333 -21.333 46.666 -32 81.999 -32c40 0 70.667 10.667 92 32l66 302c-62 65.333 -121.667 82.666 -179 51.999c-42.667 -22.667 -73.334 -65.334 -92.001 -128.001zM1110 489.003c51.333 22.667 90.667 65 118 127s40 126.5 38 193.5s-15.667 122.833 -41 167.5l-19 37
z" />
    <glyph glyph-name="A" unicode="A" horiz-adv-x="1327" 
d="M-12 0l506 1450h333l519 -1450h-394l-94 291h-387l-90 -291h-393zM553 616h217l-100 424h-11z" />
    <glyph glyph-name="B" unicode="B" horiz-adv-x="1277" 
d="M115 0l-0.00195312 1450h581c92 0 174 -17.333 246 -52s128 -86 168 -154c38 -63.333 57.333 -136.333 58 -219c0 -5.33301 -0.333008 -11 -1 -17c-1.33301 -40 -14.666 -83.333 -39.999 -130s-61.666 -82 -108.999 -106c38 -19.333 71.167 -42.333 99.5 -69
s49.833 -54 64.5 -82c14 -27.333 25.333 -56.333 34 -87c8 -27.333 12 -53 12 -77v-8c-1.33301 -26 -3 -50.667 -5 -74c-40 -250 -212 -375 -516 -375h-592zM482.998 322h213.001c42 0 77.333 10 106 30c28 20 45.333 44.667 52 74c3.33301 14 5 28.333 5 43
c0.666992 15.333 -1 30.333 -5 45c-6.66699 29.333 -24.334 54 -53.001 74s-63.667 30 -105 30h-213v-296zM482.999 883h212.998c28.667 0 53.5 6.33301 74.5 19s36.167 28.667 45.5 48c10 20 15.333 41.333 16 64c0 21.333 -4.66699 41.333 -14 60
c-9.33301 19.333 -24.666 35.333 -45.999 48s-46.666 19 -75.999 19h-213v-258z" />
    <glyph glyph-name="C" unicode="C" horiz-adv-x="1191" 
d="M80 475l0.00195312 499.999c0 79.333 16.333 151 49 215s76.334 116 131.001 156s116 70.667 184 92s139 32 213 32c47.333 0 93.666 -5.5 138.999 -16.5s91.166 -28.5 137.499 -52.5s89.833 -58.5 130.5 -103.5s75 -98.5 103 -160.5l-299 -121
c-23.333 42.667 -59 74 -107 94c-38 16 -75.667 23.667 -113 23c-9.33301 0.666992 -18.666 0.333984 -27.999 -0.999023c-46 -5.33301 -86.5 -22 -121.5 -50s-52.5 -63.667 -52.5 -107v-500c0 -33.333 11.5 -62.833 34.5 -88.5s51.833 -43.167 86.5 -52.5
c28 -7.33301 56.667 -11 86 -11c7.33301 0.666992 14.666 1 21.999 1c37.333 2.66699 72.666 15.334 105.999 38.001s57.666 53 72.999 91l320 -148c-29.333 -56.667 -64.833 -106.5 -106.5 -149.5s-86 -77 -133 -102s-94.167 -43.5 -141.5 -55.5s-94.666 -18 -141.999 -18
c-72.667 0 -142.667 10.5 -210 31.5s-128 51.5 -182 91.5s-97.333 92.167 -130 156.5s-49 136.166 -49 215.499z" />
    <glyph glyph-name="D" unicode="D" horiz-adv-x="1302" 
d="M115 0l0.000976562 1450h542c59.333 0 116.166 -5.83301 170.499 -17.5s105.5 -30.334 153.5 -56.001s89.667 -57.167 125 -94.5s63.333 -83 84 -137s31 -114 31 -180v-488c0 -64.667 -10.333 -123.834 -31 -177.501s-48.667 -98.834 -84 -135.501s-77 -67.667 -125 -93
c-47.333 -25.333 -98.333 -43.666 -153 -54.999c-51.333 -10.667 -105 -16 -161 -16h-10h-542zM483.001 344.002h187c60.667 0 106.167 14.167 136.5 42.5s45.5 66.833 45.5 115.5v452c0 48 -15.333 85.667 -46 113s-76 41 -136 41h-187v-764z" />
    <glyph glyph-name="E" unicode="E" 
d="M115 0v1450h1009v-344h-639v-225h588v-318h-588v-217h639v-346h-1009z" />
    <glyph glyph-name="F" unicode="F" horiz-adv-x="1179" 
d="M115 0v1450h1009v-348h-639v-260h559v-342h-559v-500h-370z" />
    <glyph glyph-name="G" unicode="G" horiz-adv-x="1275" 
d="M80 481l0.000976562 498c0 79.333 16.333 150.833 49 214.5s76.167 115.167 130.5 154.5s115.166 69.5 182.499 90.5s137.666 31.5 210.999 31.5c49.333 0 97.666 -5.5 144.999 -16.5s93.833 -28 139.5 -51s87.667 -55.167 126 -96.5s69.5 -89.666 93.5 -144.999
l-307 -141c-15.333 37.333 -39.5 67 -72.5 89s-68.167 33.667 -105.5 35c-4.66699 0.666992 -9.66699 1 -15 1c-31.333 0 -61.666 -4.33301 -90.999 -13c-34.667 -10.667 -63.334 -29.667 -86.001 -57s-34 -59.333 -34 -96v-498c0 -36 10.5 -67.333 31.5 -94
s47.167 -45.834 78.5 -57.501s65.333 -17.5 102 -17.5s70.667 6 102 18s57.5 31.167 78.5 57.5s31.5 57.5 31.5 93.5v54h-231v307h584v-361c0 -80.667 -16 -153.5 -48 -218.5s-74.833 -117.667 -128.5 -158s-114.167 -71.166 -181.5 -92.499s-138 -32 -212 -32
c-73.333 0 -143.666 10.667 -210.999 32s-128.166 52.166 -182.499 92.499s-97.833 93 -130.5 158s-49 137.833 -49 218.5z" />
    <glyph glyph-name="H" unicode="H" horiz-adv-x="1384" 
d="M115 0v1450h368v-549h418v549h369v-1450h-369v547h-418v-547h-368z" />
    <glyph glyph-name="I" unicode="I" horiz-adv-x="595" 
d="M115 0v1450h366v-1450h-366z" />
    <glyph glyph-name="J" unicode="J" horiz-adv-x="1202" 
d="M6 426l346 72.001c9.33301 -54.667 33.666 -95.667 72.999 -123s84 -41 134 -41c46.667 0 87.667 13 123 39s53 59.333 53 100v645h-329v332h692v-977c0 -76 -15.833 -145.667 -47.5 -209s-73.667 -115.333 -126 -156s-111.166 -72.167 -176.499 -94.5
s-133 -33.5 -203 -33.5c-64 0 -125.5 9 -184.5 27s-113.333 44.667 -163 80s-91.5 82.166 -125.5 140.499s-56 124.5 -66 198.5z" />
    <glyph glyph-name="K" unicode="K" horiz-adv-x="1310" 
d="M115 0v1450h368v-537l394 537h456l-573 -700l571 -750h-465l-370 518l-13 -16v-502h-368z" />
    <glyph glyph-name="L" unicode="L" horiz-adv-x="1101" 
d="M115 0v1450h368v-1088h590v-362h-958z" />
    <glyph glyph-name="M" unicode="M" horiz-adv-x="1574" 
d="M115 0v1450h366l305 -709l308 709h366v-1450h-368l2 418l22 293l-12 2l-191 -498h-251l-195 498l-10 -2l24 -293v-418h-366z" />
    <glyph glyph-name="N" unicode="N" horiz-adv-x="1384" 
d="M115 0v1450h348l350 -619l123 -290l10 2c-0.666992 0 -7.5 41.667 -20.5 125s-19.833 125 -20.5 125v657h365v-1450h-371l-328 571l-127 291l-10 -2l47 -280v-580h-366z" />
    <glyph glyph-name="O" unicode="O" horiz-adv-x="1361" 
d="M80 477v496.002c0 64.667 11.167 124.5 33.5 179.5s52.666 101.667 90.999 140s83.166 71 134.499 98s105.666 47 162.999 60s116.666 19.5 177.999 19.5s120.833 -6.5 178.5 -19.5s112.167 -33 163.5 -60s96.333 -59.833 135 -98.5s69.167 -85.334 91.5 -140.001
s33.5 -114.334 33.5 -179.001v-496c0 -64.667 -11.167 -124.334 -33.5 -179.001s-52.666 -101.334 -90.999 -140.001s-83.166 -71.5 -134.499 -98.5s-105.666 -47 -162.999 -60s-116.666 -19.5 -177.999 -19.5s-120.833 6.5 -178.5 19.5s-112.167 33 -163.5 60
s-96.333 59.833 -135 98.5s-69.167 85.334 -91.5 140.001s-33.5 114.334 -33.5 179.001zM446 477.002c0 -50 23.332 -88.832 69.999 -116.499s102 -41.5 166 -41.5c63.333 0 118 14 164 42s69 66.667 69 116v496c0 36 -11.833 66.667 -35.5 92s-53.167 43.666 -88.5 54.999
s-73.666 17 -114.999 17c-61.333 0 -115 -14.833 -161 -44.5s-69 -69.5 -69 -119.5v-496z" />
    <glyph glyph-name="P" unicode="P" horiz-adv-x="1265" 
d="M115 0l0.000976562 1450h579c68.667 0 132.167 -9.5 190.5 -28.5s108.166 -45 149.499 -78s76.5 -71.333 105.5 -115s50.5 -90 64.5 -139s21 -99.5 21 -151.5c0 -66 -11.333 -129.167 -34 -189.5s-55.5 -115 -98.5 -164s-98.667 -88 -167 -117
s-144.833 -43.5 -229.5 -43.5h-215v-424h-366zM481.001 750h213c30 0 57 6.5 81 19.5s42.167 30 54.5 51s21.166 44.167 26.499 69.5c2.66699 12.667 4 25.334 4 38.001c0 13.333 -1.33301 26.666 -4 39.999c-5.33301 25.333 -14.166 48.5 -26.499 69.5s-30.5 38 -54.5 51
s-51 19.5 -81 19.5h-213v-358z" />
    <glyph glyph-name="Q" unicode="Q" horiz-adv-x="1361" 
d="M80 477l0.00390625 496c0 64.667 11.167 124.5 33.5 179.5s52.666 101.667 90.999 140s83.166 71 134.499 98s105.666 47 162.999 60s116.666 19.5 177.999 19.5s120.833 -6.5 178.5 -19.5s112.167 -33 163.5 -60s96.333 -59.833 135 -98.5s69.167 -85.334 91.5 -140.001
s33.5 -114.334 33.5 -179.001v-496c0 -94 -24.667 -179.333 -74 -256l113 -115l-203 -182l-119 123c-95.333 -44.667 -201 -67 -317 -67c-61.333 0 -120.833 6.5 -178.5 19.5s-112.167 33 -163.5 60s-96.333 59.833 -135 98.5s-69.167 85.334 -91.5 140.001
s-33.5 114.334 -33.5 179.001zM446.004 477c0 -32 9.33398 -61.1641 28.001 -87.4971s42 -46 70 -59s58.667 -21.167 92 -24.5c6.66699 -0.666992 13 -1 19 -1c26.667 0 52 5.66699 76 17l-119 122l203 177l100 -103v455c0 35.333 -11.5 66 -34.5 92
s-51.833 44.667 -86.5 56s-71.334 17 -110.001 17h-4c-40 -0.666992 -77.5 -6.83398 -112.5 -18.501s-64 -30.334 -87 -56.001s-34.5 -55.834 -34.5 -90.501v-496z" />
    <glyph glyph-name="R" unicode="R" horiz-adv-x="1323" 
d="M115 0l0.000976562 1450h579c76.667 0 146.5 -9.16699 209.5 -27.5s119.167 -46 168.5 -83s88 -86.667 116 -149s43 -134.833 45 -217.5c0 -130.667 -24.833 -235.334 -74.5 -314.001s-119.834 -132.334 -210.501 -161.001l395 -498h-456l-336 461h-66v-461h-370z
M485.001 776.002l215 -0.00195312c36.667 0 68.5 8.16699 95.5 24.5s46.667 36.833 59 61.5s18.5 51.334 18.5 80.001s-6.16699 55.334 -18.5 80.001s-32 45.167 -59 61.5s-58.833 24.5 -95.5 24.5h-215v-332z" />
    <glyph glyph-name="S" unicode="S" horiz-adv-x="1155" 
d="M45 242l230.998 217.001c28 -34 62.667 -62.5 104 -85.5s82.666 -38.167 123.999 -45.5c27.333 -4.66699 54 -7 80 -7c13.333 -0.666992 26 -0.333984 38 0.999023c37.333 4 67.666 15.333 90.999 34c26 20.667 39 46.667 39 78c0 24 -12 46 -36 66
c-25.333 21.333 -56.166 37.666 -92.499 48.999s-76.166 20 -119.499 26c-60 9.33301 -116.167 25.833 -168.5 49.5s-99.666 54 -141.999 91s-75.666 83 -99.999 138s-36.5 115.833 -36.5 182.5c0 68.667 14.833 131.167 44.5 187.5s69.167 102 118.5 137
s105.166 62 167.499 81s127.166 28.5 194.499 28.5c96.667 0 185.834 -17.167 267.501 -51.5s157.5 -94.166 227.5 -179.499l-239 -184c-36 39.333 -78.667 69 -128 89c-46 19.333 -89 29 -129 29h-7c-41.333 -1.33301 -77 -13.333 -107 -36s-45.667 -54.334 -47 -95.001
c3.33301 -62.667 67.333 -107.667 192 -135c40.667 -7.33301 77.334 -15.166 110.001 -23.499s67.334 -19.333 104.001 -33s68.834 -28.834 96.501 -45.501s54.334 -37.5 80.001 -62.5s46.5 -52.833 62.5 -83.5c16 -31.333 28.333 -67.666 37 -108.999
c7.33301 -34 10.666 -70.333 9.99902 -109v-27c-2 -54.667 -14.833 -105.667 -38.5 -153s-54.334 -87.833 -92.001 -121.5s-80.834 -62.667 -129.501 -87s-99.5 -42.5 -152.5 -54.5s-106.5 -18 -160.5 -18c-89.333 0 -177.5 22.5 -264.5 67.5s-163.5 109.833 -229.5 194.5z
" />
    <glyph glyph-name="T" unicode="T" horiz-adv-x="1198" 
d="M29 1104v348h1140v-348h-385v-1104h-370v1104h-385z" />
    <glyph glyph-name="U" unicode="U" horiz-adv-x="1366" 
d="M106 485l-0.000976562 965h371v-965c0 -32 7.66699 -60.5 23 -85.5s35.166 -44 59.499 -57s51.166 -22.5 80.499 -28.5c14.667 -2.66699 29.334 -4.16699 44.001 -4.5s29.334 1.16699 44.001 4.5c29.333 6 56.333 15.5 81 28.5s44.834 32 60.501 57s23.5 53.5 23.5 85.5
v965h371v-965c0 -93.333 -21.5 -176.666 -64.5 -249.999s-98.5 -128.833 -166.5 -166.5s-143.333 -65.167 -226 -82.5c-41.333 -8.66699 -82.5 -13.167 -123.5 -13.5s-82.167 4.16699 -123.5 13.5c-82 17.333 -157 44.833 -225 82.5s-123.167 93.167 -165.5 166.5
s-63.5 156.666 -63.5 249.999z" />
    <glyph glyph-name="V" unicode="V" horiz-adv-x="1343" 
d="M-18 1452h393l227 -709l66 -344h6l65 342l230 711h393l-522 -1450h-336z" />
    <glyph glyph-name="W" unicode="W" horiz-adv-x="1873" 
d="M0 1450h381l172 -694l37 -307h10l35 305l162 508h278l150 -510l47 -303h6l41 303l176 698h379l-418 -1450h-340l-129 401l-51 332h-6l-56 -330l-114 -403h-340z" />
    <glyph glyph-name="X" unicode="X" horiz-adv-x="1343" 
d="M-6 0l407 723l-407 727h428l248 -496l254 496h426l-406 -727l406 -723h-426l-254 494l-248 -494h-428z" />
    <glyph glyph-name="Y" unicode="Y" horiz-adv-x="1341" 
d="M-18 1450h426l262 -532l262 532h430l-508 -879v-571h-367v571z" />
    <glyph glyph-name="Z" unicode="Z" horiz-adv-x="1239" 
d="M29 135l626 975h-581v340h1054l78 -123l-624 -993l589 4v-338h-1075z" />
    <glyph glyph-name="bracketleft" unicode="[" horiz-adv-x="671" 
d="M102 -205v1659h492v-340h-141v-981h141v-338h-492z" />
    <glyph glyph-name="backslash" unicode="\" horiz-adv-x="1030" 
d="M39 1456l330 115l622 -1579l-325 -111z" />
    <glyph glyph-name="bracketright" unicode="]" horiz-adv-x="671" 
d="M78 129h137v991h-137v334h491v-1659h-491v334z" />
    <glyph glyph-name="asciicircum" unicode="^" horiz-adv-x="1335" 
d="M53 827l506 621h201l520 -621h-424l-199 236l-194 -236h-410z" />
    <glyph glyph-name="underscore" unicode="_" horiz-adv-x="1214" 
d="M92 70h1032v-346h-1032v346z" />
    <glyph glyph-name="grave" unicode="`" horiz-adv-x="831" 
d="M41 1888h381l205 -340h-318z" />
    <glyph glyph-name="a" unicode="a" horiz-adv-x="1327" 
d="M-12 0l506 1450h333l519 -1450h-394l-94 291h-387l-90 -291h-393zM553 616h217l-100 424h-11z" />
    <glyph glyph-name="b" unicode="b" horiz-adv-x="1277" 
d="M115 0l-0.00195312 1450h581c92 0 174 -17.333 246 -52s128 -86 168 -154c38 -63.333 57.333 -136.333 58 -219c0 -5.33301 -0.333008 -11 -1 -17c-1.33301 -40 -14.666 -83.333 -39.999 -130s-61.666 -82 -108.999 -106c38 -19.333 71.167 -42.333 99.5 -69
s49.833 -54 64.5 -82c14 -27.333 25.333 -56.333 34 -87c8 -27.333 12 -53 12 -77v-8c-1.33301 -26 -3 -50.667 -5 -74c-40 -250 -212 -375 -516 -375h-592zM482.998 322h213.001c42 0 77.333 10 106 30c28 20 45.333 44.667 52 74c3.33301 14 5 28.333 5 43
c0.666992 15.333 -1 30.333 -5 45c-6.66699 29.333 -24.334 54 -53.001 74s-63.667 30 -105 30h-213v-296zM482.999 883h212.998c28.667 0 53.5 6.33301 74.5 19s36.167 28.667 45.5 48c10 20 15.333 41.333 16 64c0 21.333 -4.66699 41.333 -14 60
c-9.33301 19.333 -24.666 35.333 -45.999 48s-46.666 19 -75.999 19h-213v-258z" />
    <glyph glyph-name="c" unicode="c" horiz-adv-x="1191" 
d="M80 475l0.00195312 499.999c0 79.333 16.333 151 49 215s76.334 116 131.001 156s116 70.667 184 92s139 32 213 32c47.333 0 93.666 -5.5 138.999 -16.5s91.166 -28.5 137.499 -52.5s89.833 -58.5 130.5 -103.5s75 -98.5 103 -160.5l-299 -121
c-23.333 42.667 -59 74 -107 94c-38 16 -75.667 23.667 -113 23c-9.33301 0.666992 -18.666 0.333984 -27.999 -0.999023c-46 -5.33301 -86.5 -22 -121.5 -50s-52.5 -63.667 -52.5 -107v-500c0 -33.333 11.5 -62.833 34.5 -88.5s51.833 -43.167 86.5 -52.5
c28 -7.33301 56.667 -11 86 -11c7.33301 0.666992 14.666 1 21.999 1c37.333 2.66699 72.666 15.334 105.999 38.001s57.666 53 72.999 91l320 -148c-29.333 -56.667 -64.833 -106.5 -106.5 -149.5s-86 -77 -133 -102s-94.167 -43.5 -141.5 -55.5s-94.666 -18 -141.999 -18
c-72.667 0 -142.667 10.5 -210 31.5s-128 51.5 -182 91.5s-97.333 92.167 -130 156.5s-49 136.166 -49 215.499z" />
    <glyph glyph-name="d" unicode="d" horiz-adv-x="1302" 
d="M115 0l0.000976562 1450h542c59.333 0 116.166 -5.83301 170.499 -17.5s105.5 -30.334 153.5 -56.001s89.667 -57.167 125 -94.5s63.333 -83 84 -137s31 -114 31 -180v-488c0 -64.667 -10.333 -123.834 -31 -177.501s-48.667 -98.834 -84 -135.501s-77 -67.667 -125 -93
c-47.333 -25.333 -98.333 -43.666 -153 -54.999c-51.333 -10.667 -105 -16 -161 -16h-10h-542zM483.001 344.002h187c60.667 0 106.167 14.167 136.5 42.5s45.5 66.833 45.5 115.5v452c0 48 -15.333 85.667 -46 113s-76 41 -136 41h-187v-764z" />
    <glyph glyph-name="e" unicode="e" 
d="M115 0v1450h1009v-344h-639v-225h588v-318h-588v-217h639v-346h-1009z" />
    <glyph glyph-name="f" unicode="f" horiz-adv-x="1179" 
d="M115 0v1450h1009v-348h-639v-260h559v-342h-559v-500h-370z" />
    <glyph glyph-name="g" unicode="g" horiz-adv-x="1275" 
d="M80 481l0.000976562 498c0 79.333 16.333 150.833 49 214.5s76.167 115.167 130.5 154.5s115.166 69.5 182.499 90.5s137.666 31.5 210.999 31.5c49.333 0 97.666 -5.5 144.999 -16.5s93.833 -28 139.5 -51s87.667 -55.167 126 -96.5s69.5 -89.666 93.5 -144.999
l-307 -141c-15.333 37.333 -39.5 67 -72.5 89s-68.167 33.667 -105.5 35c-4.66699 0.666992 -9.66699 1 -15 1c-31.333 0 -61.666 -4.33301 -90.999 -13c-34.667 -10.667 -63.334 -29.667 -86.001 -57s-34 -59.333 -34 -96v-498c0 -36 10.5 -67.333 31.5 -94
s47.167 -45.834 78.5 -57.501s65.333 -17.5 102 -17.5s70.667 6 102 18s57.5 31.167 78.5 57.5s31.5 57.5 31.5 93.5v54h-231v307h584v-361c0 -80.667 -16 -153.5 -48 -218.5s-74.833 -117.667 -128.5 -158s-114.167 -71.166 -181.5 -92.499s-138 -32 -212 -32
c-73.333 0 -143.666 10.667 -210.999 32s-128.166 52.166 -182.499 92.499s-97.833 93 -130.5 158s-49 137.833 -49 218.5z" />
    <glyph glyph-name="h" unicode="h" horiz-adv-x="1384" 
d="M115 0v1450h368v-549h418v549h369v-1450h-369v547h-418v-547h-368z" />
    <glyph glyph-name="i" unicode="i" horiz-adv-x="595" 
d="M115 0v1450h366v-1450h-366z" />
    <glyph glyph-name="j" unicode="j" horiz-adv-x="1202" 
d="M6 426l346 72.001c9.33301 -54.667 33.666 -95.667 72.999 -123s84 -41 134 -41c46.667 0 87.667 13 123 39s53 59.333 53 100v645h-329v332h692v-977c0 -76 -15.833 -145.667 -47.5 -209s-73.667 -115.333 -126 -156s-111.166 -72.167 -176.499 -94.5
s-133 -33.5 -203 -33.5c-64 0 -125.5 9 -184.5 27s-113.333 44.667 -163 80s-91.5 82.166 -125.5 140.499s-56 124.5 -66 198.5z" />
    <glyph glyph-name="k" unicode="k" horiz-adv-x="1310" 
d="M115 0v1450h368v-537l394 537h456l-573 -700l571 -750h-465l-370 518l-13 -16v-502h-368z" />
    <glyph glyph-name="l" unicode="l" horiz-adv-x="1101" 
d="M115 0v1450h368v-1088h590v-362h-958z" />
    <glyph glyph-name="m" unicode="m" horiz-adv-x="1574" 
d="M115 0v1450h366l305 -709l308 709h366v-1450h-368l2 418l22 293l-12 2l-191 -498h-251l-195 498l-10 -2l24 -293v-418h-366z" />
    <glyph glyph-name="n" unicode="n" horiz-adv-x="1384" 
d="M115 0v1450h348l350 -619l123 -290l10 2c-0.666992 0 -7.5 41.667 -20.5 125s-19.833 125 -20.5 125v657h365v-1450h-371l-328 571l-127 291l-10 -2l47 -280v-580h-366z" />
    <glyph glyph-name="o" unicode="o" horiz-adv-x="1361" 
d="M80 477v496.002c0 64.667 11.167 124.5 33.5 179.5s52.666 101.667 90.999 140s83.166 71 134.499 98s105.666 47 162.999 60s116.666 19.5 177.999 19.5s120.833 -6.5 178.5 -19.5s112.167 -33 163.5 -60s96.333 -59.833 135 -98.5s69.167 -85.334 91.5 -140.001
s33.5 -114.334 33.5 -179.001v-496c0 -64.667 -11.167 -124.334 -33.5 -179.001s-52.666 -101.334 -90.999 -140.001s-83.166 -71.5 -134.499 -98.5s-105.666 -47 -162.999 -60s-116.666 -19.5 -177.999 -19.5s-120.833 6.5 -178.5 19.5s-112.167 33 -163.5 60
s-96.333 59.833 -135 98.5s-69.167 85.334 -91.5 140.001s-33.5 114.334 -33.5 179.001zM446 477.002c0 -50 23.332 -88.832 69.999 -116.499s102 -41.5 166 -41.5c63.333 0 118 14 164 42s69 66.667 69 116v496c0 36 -11.833 66.667 -35.5 92s-53.167 43.666 -88.5 54.999
s-73.666 17 -114.999 17c-61.333 0 -115 -14.833 -161 -44.5s-69 -69.5 -69 -119.5v-496z" />
    <glyph glyph-name="p" unicode="p" horiz-adv-x="1265" 
d="M115 0l0.000976562 1450h579c68.667 0 132.167 -9.5 190.5 -28.5s108.166 -45 149.499 -78s76.5 -71.333 105.5 -115s50.5 -90 64.5 -139s21 -99.5 21 -151.5c0 -66 -11.333 -129.167 -34 -189.5s-55.5 -115 -98.5 -164s-98.667 -88 -167 -117
s-144.833 -43.5 -229.5 -43.5h-215v-424h-366zM481.001 750h213c30 0 57 6.5 81 19.5s42.167 30 54.5 51s21.166 44.167 26.499 69.5c3.33301 13.333 5 26.333 5 39s-1.66699 25.667 -5 39c-5.33301 25.333 -14.166 48.5 -26.499 69.5s-30.5 38 -54.5 51s-51 19.5 -81 19.5
h-213v-358z" />
    <glyph glyph-name="q" unicode="q" horiz-adv-x="1361" 
d="M80 477l0.00390625 496c0 64.667 11.167 124.5 33.5 179.5s52.666 101.667 90.999 140s83.166 71 134.499 98s105.666 47 162.999 60s116.666 19.5 177.999 19.5s120.833 -6.5 178.5 -19.5s112.167 -33 163.5 -60s96.333 -59.833 135 -98.5s69.167 -85.334 91.5 -140.001
s33.5 -114.334 33.5 -179.001v-496c0 -94 -24.667 -179.333 -74 -256l113 -115l-203 -182l-119 123c-95.333 -44.667 -201 -67 -317 -67c-61.333 0 -120.833 6.5 -178.5 19.5s-112.167 33 -163.5 60s-96.333 59.833 -135 98.5s-69.167 85.334 -91.5 140.001
s-33.5 114.334 -33.5 179.001zM446.004 477c0 -32 9.33398 -61.1641 28.001 -87.4971s42 -46 70 -59s58.667 -21.167 92 -24.5c6.66699 -0.666992 13 -1 19 -1c26.667 0 52 5.66699 76 17l-119 122l203 177l100 -103v455c0 35.333 -11.5 66 -34.5 92
s-51.833 44.667 -86.5 56s-71.334 17 -110.001 17h-4c-40 -0.666992 -77.5 -6.83398 -112.5 -18.501s-64 -30.334 -87 -56.001s-34.5 -55.834 -34.5 -90.501v-496z" />
    <glyph glyph-name="r" unicode="r" horiz-adv-x="1323" 
d="M115 0l0.000976562 1450h579c76.667 0 146.5 -9.16699 209.5 -27.5s119.167 -46 168.5 -83s88 -86.667 116 -149s43 -134.833 45 -217.5c0 -130.667 -24.833 -235.334 -74.5 -314.001s-119.834 -132.334 -210.501 -161.001l395 -498h-456l-336 461h-66v-461h-370z
M485.001 776.002l215 -0.00195312c36.667 0 68.5 8.16699 95.5 24.5s46.667 36.833 59 61.5s18.5 51.334 18.5 80.001s-6.16699 55.334 -18.5 80.001s-32 45.167 -59 61.5s-58.833 24.5 -95.5 24.5h-215v-332z" />
    <glyph glyph-name="s" unicode="s" horiz-adv-x="1155" 
d="M45 242l230.998 217.001c28 -34 62.667 -62.5 104 -85.5s82.666 -38.167 123.999 -45.5c27.333 -4.66699 54 -7 80 -7c13.333 -0.666992 26 -0.333984 38 0.999023c37.333 4 67.666 15.333 90.999 34c26 20.667 39 46.667 39 78c0 24 -12 46 -36 66
c-25.333 21.333 -56.166 37.666 -92.499 48.999s-76.166 20 -119.499 26c-60 9.33301 -116.167 25.833 -168.5 49.5s-99.666 54 -141.999 91s-75.666 83 -99.999 138s-36.5 115.833 -36.5 182.5c0 68.667 14.833 131.167 44.5 187.5s69.167 102 118.5 137
s105.166 62 167.499 81s127.166 28.5 194.499 28.5c96.667 0 185.834 -17.167 267.501 -51.5s157.5 -94.166 227.5 -179.499l-239 -184c-36 39.333 -78.667 69 -128 89c-46 19.333 -89 29 -129 29h-7c-41.333 -1.33301 -77 -13.333 -107 -36s-45.667 -54.334 -47 -95.001
c3.33301 -62.667 67.333 -107.667 192 -135c40.667 -7.33301 77.334 -15.166 110.001 -23.499s67.334 -19.333 104.001 -33s68.834 -28.834 96.501 -45.501s54.334 -37.5 80.001 -62.5s46.5 -52.833 62.5 -83.5c16 -31.333 28.333 -67.666 37 -108.999
c7.33301 -34 10.666 -70.333 9.99902 -109v-27c-2 -54.667 -14.833 -105.667 -38.5 -153s-54.334 -87.833 -92.001 -121.5s-80.834 -62.667 -129.501 -87s-99.5 -42.5 -152.5 -54.5s-106.5 -18 -160.5 -18c-89.333 0 -177.5 22.5 -264.5 67.5s-163.5 109.833 -229.5 194.5z
" />
    <glyph glyph-name="t" unicode="t" horiz-adv-x="1198" 
d="M29 1104v348h1140v-348h-385v-1104h-370v1104h-385z" />
    <glyph glyph-name="u" unicode="u" horiz-adv-x="1366" 
d="M106 485l-0.000976562 965h371v-965c0 -32 7.66699 -60.5 23 -85.5s35.166 -44 59.499 -57s51.166 -22.5 80.499 -28.5c14.667 -2.66699 29.334 -4.16699 44.001 -4.5s29.334 1.16699 44.001 4.5c29.333 6 56.333 15.5 81 28.5s44.834 32 60.501 57s23.5 53.5 23.5 85.5
v965h371v-965c0 -93.333 -21.5 -176.666 -64.5 -249.999s-98.5 -128.833 -166.5 -166.5s-143.333 -65.167 -226 -82.5c-41.333 -8.66699 -82.5 -13.167 -123.5 -13.5s-82.167 4.16699 -123.5 13.5c-82 17.333 -157 44.833 -225 82.5s-123.167 93.167 -165.5 166.5
s-63.5 156.666 -63.5 249.999z" />
    <glyph glyph-name="v" unicode="v" horiz-adv-x="1343" 
d="M-18 1452h393l227 -709l66 -344h6l65 342l230 711h393l-522 -1450h-336z" />
    <glyph glyph-name="w" unicode="w" horiz-adv-x="1873" 
d="M0 1450h381l172 -694l37 -307h10l35 305l162 508h278l150 -510l47 -303h6l41 303l176 698h379l-418 -1450h-340l-129 401l-51 332h-6l-56 -330l-114 -403h-340z" />
    <glyph glyph-name="x" unicode="x" horiz-adv-x="1343" 
d="M-6 0l407 723l-407 727h428l248 -496l254 496h426l-406 -727l406 -723h-426l-254 494l-248 -494h-428z" />
    <glyph glyph-name="y" unicode="y" horiz-adv-x="1341" 
d="M-18 1450h426l262 -532l262 532h430l-508 -879v-571h-367v571z" />
    <glyph glyph-name="z" unicode="z" horiz-adv-x="1239" 
d="M29 135l626 975h-581v340h1054l78 -123l-624 -993l589 4v-338h-1075z" />
    <glyph glyph-name="braceleft" unicode="{" horiz-adv-x="718" 
d="M59 446l0.000976562 334c40 0 68.5 10 85.5 30s25.5 45.667 25.5 77v250c0 103.333 23 182 69 236s124 81 234 81h168v-334h-121v-264c0 -46 -13.833 -93.667 -41.5 -143s-62.834 -82.333 -105.501 -99c46 -16.667 82 -48.167 108 -94.5s39 -95.833 39 -148.5v-242h121
v-334h-184c-107.333 0 -182 26.333 -224 79s-63 131.667 -63 237v227c0 72 -37 108 -111 108z" />
    <glyph glyph-name="bar" unicode="|" horiz-adv-x="550" 
d="M102 -276v1759h347v-1759h-347z" />
    <glyph glyph-name="braceright" unicode="}" horiz-adv-x="704" 
d="M80 113l104.001 0.000976562v258c-2.66699 50.667 12.166 100.167 44.499 148.5s70.166 80.5 113.499 96.5c-42.667 20 -80.667 53.167 -114 99.5s-48 93.166 -44 140.499v260h-104v334h141c55.333 0 102.166 -5.16699 140.499 -15.5s68.5 -23.666 90.5 -39.999
s39 -38.833 51 -67.5s19.833 -57.334 23.5 -86.001s5.5 -64.667 5.5 -108v-246c0 -71.333 37.667 -107 113 -107v-334c-75.333 0 -113 -36 -113 -108v-244c0 -52 -4.33301 -96 -13 -132s-24.167 -68.5 -46.5 -97.5s-54.666 -50.5 -96.999 -64.5s-95.166 -21 -158.499 -21
h-137v334z" />
    <glyph glyph-name="asciitilde" unicode="~" horiz-adv-x="999" 
d="M51 590c48.667 71.333 98.832 127.998 150.499 169.998s108.167 63 169.5 63c31.333 0 62.833 -7.83301 94.5 -23.5s58 -31.5 79 -47.5s42.5 -28.667 64.5 -38s43.833 -7.5 65.5 5.5s43.834 40.167 66.501 81.5l209 -174c-98 -168 -207.667 -252 -329 -252
c-28 0 -56.333 6.66699 -85 20s-53 26.833 -73 40.5s-40.333 24.834 -61 33.501s-41.167 7.83398 -61.5 -2.49902s-40.833 -32.833 -61.5 -67.5z" />
    <glyph glyph-name="uni00A0" unicode="&#xa0;" horiz-adv-x="372" 
 />
    <glyph glyph-name="cent" unicode="&#xa2;" horiz-adv-x="978" 
d="M82 375l-0.000976562 308.999c0 99.333 28.667 180.833 86 244.5s131 106.5 221 128.5v145h262v-149c132.667 -40 218.667 -130.333 258 -271l-291 -90c-5.33301 24.667 -15.666 44.834 -30.999 60.501s-32.166 25 -50.499 28s-36.333 2.16699 -54 -2.5
s-32.5 -14.834 -44.5 -30.501s-18 -34.167 -18 -55.5v-323c0 -22 6 -40.667 18 -56s27.167 -25.166 45.5 -29.499s37.166 -5 56.499 -2s37.5 12 54.5 27s29.167 34.5 36.5 58.5l299 -68c-24.667 -78.667 -61.667 -141.667 -111 -189s-105.333 -81.333 -168 -102v-149h-262
v143c-90 22 -163.667 64.833 -221 128.5s-86 145.167 -86 244.5z" />
    <glyph glyph-name="sterling" unicode="&#xa3;" horiz-adv-x="1085" 
d="M76 0l0.00195312 323.998h160v229h-160v313h160v154c0 41.333 4.33301 81.5 13 120.5s23.667 77.833 45 116.5s48.166 72.334 80.499 101.001s74.333 51.834 126 69.501s110.167 26.5 175.5 26.5c58 0 118.667 -14 182 -42s119.333 -70.667 168 -128l-203 -194
c-27.333 30 -59.833 46.5 -97.5 49.5s-70.334 -7.5 -98.001 -31.5s-41.5 -56.667 -41.5 -98v-144h344v-313h-344v-229h422v-324h-932z" />
    <glyph glyph-name="yen" unicode="&#xa5;" horiz-adv-x="1458" 
d="M39 1450h426l262 -553l262 553h430l-411 -711h145l-47 -221h-195v-63h242l-47 -222h-195v-233h-366v233h-223l45 222h178v63h-223l45 221h82z" />
    <glyph glyph-name="dieresis" unicode="&#xa8;" horiz-adv-x="1044" 
d="M102 1708c0 48.667 16.667 89.834 50 123.501s74 50.5 122 50.5s88.667 -16.833 122 -50.5s50 -74.834 50 -123.501c0 -47.333 -16.667 -87.5 -50 -120.5s-74 -49.5 -122 -49.5s-88.667 16.5 -122 49.5s-50 73.167 -50 120.5zM596 1708
c0 49.333 16.335 90.666 49.002 123.999s73.667 50 123 50s90.666 -16.667 123.999 -50s50 -74.666 50 -123.999c0 -47.333 -16.833 -87.5 -50.5 -120.5s-74.834 -49.5 -123.501 -49.5c-49.333 0 -90.333 16.5 -123 49.5s-49 73.167 -49 120.5z" />
    <glyph glyph-name="copyright" unicode="&#xa9;" horiz-adv-x="1593" 
d="M61 719c0 98.667 19.501 193.336 58.501 284.003s91.5 169 157.5 235s144.667 118.5 236 157.5s186.666 58.5 285.999 58.5c98.667 0 193.334 -19.5 284.001 -58.5s168.667 -91.5 234 -157.5s117.5 -144.333 156.5 -235s58.5 -185.334 58.5 -284.001
c0 -133.333 -32.833 -256.333 -98.5 -369s-154.834 -201.834 -267.501 -267.501s-235 -98.5 -367 -98.5c-80 0 -157.5 12.333 -232.5 37s-142.667 59.667 -203 105s-113.333 98.166 -159 158.499s-81 127.833 -106 202.5s-37.5 152 -37.5 232zM272.001 719.002
c0 -95.333 23.334 -183.332 70.001 -263.999s110.5 -144.5 191.5 -191.5s169.5 -70.5 265.5 -70.5c94.667 0 182.167 23.5 262.5 70.5s143.666 110.833 189.999 191.5s69.5 168.667 69.5 264c0 96 -23.333 184.167 -70 264.5s-110 143.666 -190 189.999
s-167.333 69.5 -262 69.5c-146.667 0 -271.167 -50.833 -373.5 -152.5s-153.5 -225.5 -153.5 -371.5zM406.002 600.003c0 -44.667 7.3291 -85.8359 21.9961 -123.503s34.667 -69.667 60 -96s54.833 -48.666 88.5 -66.999s69.167 -31.833 106.5 -40.5s76 -13 116 -13
c40.667 0 80.667 4.83301 120 14.5s77.166 24.334 113.499 44.001s68.5 46.834 96.5 81.501s48.333 74.667 61 120l-197 74c-8.66699 -30 -23.667 -55.167 -45 -75.5s-45.166 -34.5 -71.499 -42.5s-54.166 -11.333 -83.499 -10s-56.333 7.16602 -81 17.499
s-45.667 25.5 -63 45.5s-27.666 43 -30.999 69v231c4 31.333 17.833 58.333 41.5 81s51.834 37.5 84.501 44.5s65.834 8.66699 99.501 5s64.5 -16.667 92.5 -39s47 -51.166 57 -86.499l193 73c-16.667 60 -46.5 110.333 -89.5 151s-89.5 69 -139.5 85s-102.667 24 -158 24
c-40 0 -78.667 -4.33301 -116 -13s-72.833 -22.167 -106.5 -40.5s-63.167 -40.666 -88.5 -66.999s-45.333 -58.333 -60 -96s-22 -78.834 -22 -123.501v-227z" />
    <glyph glyph-name="guillemotleft" unicode="&#xab;" horiz-adv-x="1253" 
d="M39 588l328 485l297 -176l-211 -309l213 -314l-301 -176zM567 588l328 485l297 -176l-213 -313l217 -308l-301 -178z" />
    <glyph glyph-name="uni00AD" unicode="&#xad;" horiz-adv-x="827" 
d="M94 420v348h639v-348h-639z" />
    <glyph glyph-name="registered" unicode="&#xae;" horiz-adv-x="1593" 
d="M61 719c0 98.667 19.501 193.336 58.501 284.003s91.5 169 157.5 235s144.667 118.5 236 157.5s186.666 58.5 285.999 58.5c98.667 0 193.334 -19.5 284.001 -58.5s168.667 -91.5 234 -157.5s117.5 -144.333 156.5 -235s58.5 -185.334 58.5 -284.001
c0 -133.333 -32.833 -256.333 -98.5 -369s-154.834 -201.834 -267.501 -267.501s-235 -98.5 -367 -98.5c-80 0 -157.5 12.333 -232.5 37s-142.667 59.667 -203 105s-113.333 98.166 -159 158.499s-81 127.833 -106 202.5s-37.5 152 -37.5 232zM281.001 719.002
c0 -70.667 13.8301 -138.166 41.4971 -202.499s64.667 -119.833 111 -166.5s101.833 -83.834 166.5 -111.501s132.334 -41.5 203.001 -41.5c93.333 0 179.833 23.333 259.5 70s142.667 110.167 189 190.5s69.5 167.5 69.5 261.5c0 70.667 -13.667 138.167 -41 202.5
s-64.166 119.666 -110.499 165.999s-101.5 83.166 -165.5 110.499s-131 41 -201 41c-71.333 0 -139.166 -13.667 -203.499 -41s-119.833 -64.166 -166.5 -110.499s-83.667 -101.666 -111 -165.999s-41 -131.833 -41 -202.5zM499.998 346.003l-0.00390625 732.997h331
c52.667 0 99.334 -9.66699 140.001 -29s71.834 -44.166 93.501 -74.499s36.167 -64.166 43.5 -101.499s6.83301 -73.666 -1.5 -108.999s-24.666 -68 -48.999 -98s-55.166 -52.333 -92.499 -67l176 -254h-238l-160 240h-43v-240h-200zM699.994 750h124.998
c20.667 0 38 5.33301 52 16s22.333 23.667 25 39s2.33398 30.5 -0.999023 45.5s-12.166 27.833 -26.499 38.5s-31.5 16 -51.5 16h-123v-155z" />
    <glyph glyph-name="acute" unicode="&#xb4;" horiz-adv-x="790" 
d="M205 1548l205 340h381l-269 -340h-317z" />
    <glyph glyph-name="cedilla" unicode="&#xb8;" horiz-adv-x="788" 
d="M102 -416l66.002 175.998c31.333 -21.333 62.666 -37.666 93.999 -48.999s59.833 -15 85.5 -11s41.5 18 47.5 42c7.33301 24 -3.83398 46.667 -33.501 68s-70.167 34 -121.5 38l104 234h256l-65 -145c52.667 -14 92.667 -39 120 -75s39.5 -75.167 36.5 -117.5
s-15 -83.666 -36 -123.999s-54.5 -73.833 -100.5 -100.5s-97.333 -40 -154 -40c-115.333 0 -215 34.667 -299 104z" />
    <glyph glyph-name="guillemotright" unicode="&#xbb;" horiz-adv-x="1232" 
d="M57 274l215 314l-211 309l295 178l330 -487l-326 -488zM569 899l301 174l326 -485l-328 -490l-297 178l211 312z" />
    <glyph glyph-name="circumflex" unicode="&#x2c6;" horiz-adv-x="1026" 
d="M82 1548l315 344h240l307 -344h-332l-94 107l-90 -107h-346z" />
    <glyph glyph-name="ring" unicode="&#x2da;" horiz-adv-x="735" 
d="M98 1784c0 72 26.668 133 80.001 183s117.666 75 192.999 75c73.333 0 136 -26.167 188 -78.5s78 -112.833 78 -181.5c0 -69.333 -26.167 -129 -78.5 -179s-114.833 -75 -187.5 -75c-76 0 -140.5 24.5 -193.5 73.5s-79.5 109.833 -79.5 182.5zM293.001 1780
c0 -17.333 7.33105 -33.667 21.998 -49s33.334 -23 56.001 -23c21.333 0 38.833 6.5 52.5 19.5s20.5 30.5 20.5 52.5s-7.16699 41.167 -21.5 57.5s-31.5 24.5 -51.5 24.5c-23.333 0 -42.166 -8 -56.499 -24s-21.5 -35.333 -21.5 -58z" />
    <glyph glyph-name="tilde" unicode="&#x2dc;" horiz-adv-x="952" 
d="M102 1626c15.333 82 45 143.33 89 183.997s101 60 171 58c21.333 -0.666992 45 -6.16699 71 -16.5s49.167 -20.666 69.5 -30.999s40.666 -18.5 60.999 -24.5s39 -4.16699 56 5.5s31.833 29.167 44.5 58.5l186 -107c-19.333 -76 -47.166 -133.667 -83.499 -173
s-79.5 -58.666 -129.5 -57.999c-28.667 0 -59 5.33301 -91 16s-59.5 21.167 -82.5 31.5s-45.833 18.333 -68.5 24s-43.5 3.33398 -62.5 -6.99902s-36.167 -30.5 -51.5 -60.5z" />
    <glyph glyph-name="afii10023" unicode="&#x401;" 
d="M115 0v1450h1009v-344h-639v-225h588v-318h-588v-217h639v-346h-1009zM213 1708c0 48.667 16.667 89.834 50 123.501s74 50.5 122 50.5s88.667 -16.833 122 -50.5s50 -74.834 50 -123.501c0 -47.333 -16.667 -87.5 -50 -120.5s-74 -49.5 -122 -49.5
s-88.667 16.5 -122 49.5s-50 73.167 -50 120.5zM707 1708c0 49.333 16.333 90.666 49 123.999s73.667 50 123 50c48.667 0 89.834 -16.667 123.501 -50s50.5 -74.666 50.5 -123.999c0 -47.333 -16.833 -87.5 -50.5 -120.5s-74.834 -49.5 -123.501 -49.5
c-49.333 0 -90.333 16.5 -123 49.5s-49 73.167 -49 120.5z" />
    <glyph glyph-name="afii10017" unicode="&#x410;" horiz-adv-x="1327" 
d="M-12 0l506 1450h333l519 -1450h-394l-94 291h-387l-90 -291h-393zM553 616h217l-100 424h-11z" />
    <glyph glyph-name="afii10018" unicode="&#x411;" horiz-adv-x="1261" 
d="M115 0v1450h991v-307h-623v-225h213c80 0 150 -6.33301 210 -19s110.167 -30.667 150.5 -54s73 -53.5 98 -90.5s43 -78.333 54 -124s16.5 -98.167 16.5 -157.5c0 -145.333 -46.167 -260.5 -138.5 -345.5s-218.833 -127.5 -379.5 -127.5h-592zM483 322h213
c59.333 0 101.833 14.667 127.5 44s38.5 71.333 38.5 126c0 106 -56 159 -168 159h-211v-329z" />
    <glyph glyph-name="afii10019" unicode="&#x412;" horiz-adv-x="1282" 
d="M115 0v1450h581c92 0 174 -17.333 246 -52s128.167 -85.834 168.5 -153.501s59.166 -146.5 56.499 -236.5c-1.33301 -40 -14.666 -83.333 -39.999 -130s-61.666 -82 -108.999 -106c38 -19.333 71.167 -42.333 99.5 -69s49.666 -54 63.999 -82s25.833 -57.167 34.5 -87.5
s12.5 -58.5 11.5 -84.5s-2.5 -50.667 -4.5 -74c-40 -250 -212 -375 -516 -375h-592zM483 322.001h212.999c42 0 77.167 10.167 105.5 30.5s45.833 45 52.5 74s6.5 58 -0.5 87s-24.667 53.667 -53 74s-63.166 30.5 -104.499 30.5h-213v-296zM482.999 883.001h212.998
c28.667 0 53.5 6.33301 74.5 19s36.333 28.667 46 48s14.667 40 15 62s-4.16699 42.667 -13.5 62s-24.666 35.333 -45.999 48s-46.666 19 -75.999 19h-213v-258z" />
    <glyph glyph-name="afii10020" unicode="&#x413;" horiz-adv-x="1044" 
d="M115 0v1450h903v-348h-535v-1102h-368z" />
    <glyph glyph-name="afii10021" unicode="&#x414;" horiz-adv-x="1527" 
d="M37 -291l-0.000976562 621.001c36 0 68 5 96 15s51.667 23.167 71 39.5s35.833 38.166 49.5 65.499s24.5 54.666 32.5 81.999s14.667 60.833 20 100.5s9.33301 76.5 12 110.5s5.33398 74.667 8.00098 122c0.666992 14.667 1.16699 26 1.5 34s1 18.333 2 31
s1.83301 24.334 2.5 35.001l35 485h946v-1120h176v-621h-369v291h-708v-291h-375zM605.999 330.001h338v772h-246l-30 -440c-7.33301 -133.333 -28 -244 -62 -332z" />
    <glyph glyph-name="afii10022" unicode="&#x415;" 
d="M115 0v1450h1009v-344h-639v-225h588v-318h-588v-217h639v-346h-1009z" />
    <glyph glyph-name="afii10024" unicode="&#x416;" horiz-adv-x="1941" 
d="M-18 1450h442l362 -543v543h369v-543l363 543h442l-518 -713l516 -737h-457l-334 549l-12 -17v-532h-369v532l-12 17l-334 -549h-456l516 737z" />
    <glyph glyph-name="afii10025" unicode="&#x417;" horiz-adv-x="1167" 
d="M-2 264l233.002 182.002c40.667 -45.333 85.667 -80.833 135 -106.5s96.666 -38.5 141.999 -38.5c74.667 0 132.167 13.167 172.5 39.5s60.5 65.166 60.5 116.499c0 52 -16.5 92.667 -49.5 122s-79.167 44 -138.5 44h-215v251h207c54.667 0 97.334 13.333 128.001 40
s46 64 46 112c0 42 -15.667 75.333 -47 100s-77 37 -137 37c-46.667 0 -94.334 -10.833 -143.001 -32.5s-89.334 -44.834 -122.001 -69.501l-192 188c120 147.333 281 221 483 221c160 0 283.333 -36.667 370 -110s130 -176.333 130 -309
c0 -51.333 -14.167 -104.5 -42.5 -159.5s-66.833 -94.833 -115.5 -119.5c71.333 -36 123.666 -83.833 156.999 -143.5s50 -124.5 50 -194.5c0 -143.333 -51.167 -254.833 -153.5 -334.5s-245.166 -119.5 -428.499 -119.5c-112 0 -214.667 25 -308 75
s-167.333 119.667 -222 209z" />
    <glyph glyph-name="afii10026" unicode="&#x418;" horiz-adv-x="1402" 
d="M115 0v1450h368v-657l-30 -218l8 -2l121 261l370 616h336v-1450h-368v580l36 272l-10 2l-137 -283l-348 -571h-346z" />
    <glyph glyph-name="afii10027" unicode="&#x419;" horiz-adv-x="1402" 
d="M115 0v1450h368v-657l-30 -218l8 -2l121 261l370 616h336v-1450h-368v580l36 272l-10 2l-137 -283l-348 -571h-346zM322 1925l284.001 -0.000976562c0 -25.333 8.16699 -45.666 24.5 -60.999s36.833 -23 61.5 -23s45.167 7.66699 61.5 23s24.5 35.666 24.5 60.999h285
c0 -75.333 -18 -140.666 -54 -195.999s-81.5 -95.833 -136.5 -121.5s-115.167 -38.5 -180.5 -38.5c-48 0 -94 7.66699 -138 23s-83.333 37.333 -118 66s-62.334 66 -83.001 112s-31 97.667 -31 155z" />
    <glyph glyph-name="afii10028" unicode="&#x41a;" horiz-adv-x="1310" 
d="M115 0v1450h368v-537l394 537h456l-573 -713l571 -737h-461l-374 518l-13 -16v-502h-368z" />
    <glyph glyph-name="afii10029" unicode="&#x41b;" horiz-adv-x="1452" 
d="M35 0l0.00488281 341.995c29.333 -1.33301 56.166 0.5 80.499 5.5s45.5 12.167 63.5 21.5s34.167 22.833 48.5 40.5s26.166 34.834 35.499 51.501s17.666 38.834 24.999 66.501s13 52.334 17 74.001s7.66699 49.834 11 84.501s5.66602 64.167 6.99902 88.5l5 95
c2 39 4 70.833 6 95.5l35 485h968v-1450h-368v1102h-269l-24 -440c-4 -71.333 -13.333 -139 -28 -203s-38 -126.667 -70 -188s-71.333 -113.166 -118 -155.499s-106.334 -74.5 -179.001 -96.5s-154.667 -28.333 -246 -19z" />
    <glyph glyph-name="afii10030" unicode="&#x41c;" horiz-adv-x="1574" 
d="M115 0v1450h366l305 -709l308 709h366v-1450h-368l2 418l22 293l-12 2l-191 -498h-251l-195 498l-10 -2l24 -293v-418h-366z" />
    <glyph glyph-name="afii10031" unicode="&#x41d;" horiz-adv-x="1384" 
d="M115 0v1450h368v-549h418v549h369v-1450h-369v547h-418v-547h-368z" />
    <glyph glyph-name="afii10032" unicode="&#x41e;" horiz-adv-x="1361" 
d="M80 477v496.002c0 64.667 11.167 124.5 33.5 179.5s52.666 101.667 90.999 140s83.166 71 134.499 98s105.666 47 162.999 60s116.666 19.5 177.999 19.5s120.833 -6.5 178.5 -19.5s112.167 -33 163.5 -60s96.333 -59.833 135 -98.5s69.167 -85.334 91.5 -140.001
s33.5 -114.334 33.5 -179.001v-496c0 -64.667 -11.167 -124.334 -33.5 -179.001s-52.666 -101.334 -90.999 -140.001s-83.166 -71.5 -134.499 -98.5s-105.666 -47 -162.999 -60s-116.666 -19.5 -177.999 -19.5s-120.833 6.5 -178.5 19.5s-112.167 33 -163.5 60
s-96.333 59.833 -135 98.5s-69.167 85.334 -91.5 140.001s-33.5 114.334 -33.5 179.001zM446 477.002c0 -50 23.332 -88.832 69.999 -116.499s102 -41.5 166 -41.5c63.333 0 118 14 164 42s69 66.667 69 116v496c0 36 -11.833 66.667 -35.5 92s-53.167 43.666 -88.5 54.999
s-73.666 17 -114.999 17c-61.333 0 -115 -14.833 -161 -44.5s-69 -69.5 -69 -119.5v-496z" />
    <glyph glyph-name="afii10033" unicode="&#x41f;" horiz-adv-x="1374" 
d="M115 0v1450h1145v-1450h-369v1102h-408v-1102h-368z" />
    <glyph glyph-name="afii10034" unicode="&#x420;" horiz-adv-x="1265" 
d="M115 0l0.000976562 1450h579c68.667 0 132.167 -9.5 190.5 -28.5s108.166 -45 149.499 -78s76.5 -71.333 105.5 -115s50.5 -90 64.5 -139s21 -99.5 21 -151.5c0 -66 -11.333 -129.167 -34 -189.5s-55.5 -115 -98.5 -164s-98.667 -88 -167 -117
s-144.833 -43.5 -229.5 -43.5h-215v-424h-366zM481.001 750l213 -0.000976562c30 0 57 6.5 81 19.5s42.167 30 54.5 51s21.333 44.333 27 70s5.66699 51.334 0 77.001s-14.667 49 -27 70s-30.5 38 -54.5 51s-51 19.5 -81 19.5h-213v-358z" />
    <glyph glyph-name="afii10035" unicode="&#x421;" horiz-adv-x="1191" 
d="M80 475l0.00195312 500c0 79.333 16.333 151 49 215s76.334 116 131.001 156s116 70.667 184 92s139 32 213 32c47.333 0 93.666 -5.5 138.999 -16.5s91.166 -28.5 137.499 -52.5s89.833 -58.5 130.5 -103.5s75 -98.5 103 -160.5l-299 -121
c-23.333 42.667 -59 73.834 -107 93.501s-95 27 -141 22s-86.5 -21.5 -121.5 -49.5s-52.5 -63.667 -52.5 -107v-500c0 -33.333 11.5 -62.833 34.5 -88.5s51.833 -43.167 86.5 -52.5s70.667 -12.833 108 -10.5s72.666 15 105.999 38s57.666 53.5 72.999 91.5l320 -148
c-29.333 -56.667 -64.833 -106.5 -106.5 -149.5s-86 -77 -133 -102s-94.167 -43.5 -141.5 -55.5s-94.666 -18 -141.999 -18c-72.667 0 -142.667 10.5 -210 31.5s-128 51.5 -182 91.5s-97.333 92.167 -130 156.5s-49 136.166 -49 215.499z" />
    <glyph glyph-name="afii10036" unicode="&#x422;" horiz-adv-x="1198" 
d="M29 1104v348h1140v-348h-385v-1104h-370v1104h-385z" />
    <glyph glyph-name="afii10037" unicode="&#x423;" horiz-adv-x="1228" 
d="M-55 1450h415l144 -315l98 -263h10l109 283l131 295h408l-656 -1450h-395l213 469z" />
    <glyph glyph-name="afii10038" unicode="&#x424;" horiz-adv-x="1646" 
d="M53 600v250c0 67.333 11.167 128.166 33.5 182.499s52.166 99.833 89.499 136.5s81.666 67.334 132.999 92.001s105.333 42.5 162 53.5s116 16.5 178 16.5v119h348v-119c62 0 121.333 -5.5 178 -16.5s110.667 -28.833 162 -53.5s95.666 -55.334 132.999 -92.001
s67.166 -82.167 89.499 -136.5s33.5 -115.166 33.5 -182.499v-250c0 -67.333 -11.167 -128.166 -33.5 -182.499s-52.166 -99.833 -89.499 -136.5s-81.666 -67.334 -132.999 -92.001s-105.333 -42.5 -162 -53.5s-116 -16.5 -178 -16.5v-119h-348v119
c-62 0 -121.333 5.5 -178 16.5s-110.667 28.833 -162 53.5s-95.666 55.334 -132.999 92.001s-67.166 82.167 -89.499 136.5s-33.5 115.166 -33.5 182.499zM422 598c0 -56 20.5 -94.5 61.5 -115.5s96.167 -31.5 165.5 -31.5v548c-69.333 0 -124.5 -10.5 -165.5 -31.5
s-61.5 -59.5 -61.5 -115.5v-254zM997 451c32.667 0 61.5 2.00195 86.5 6.00195s48.833 11 71.5 21s40 25.167 52 45.5s18 45.166 18 74.499v254c0 29.333 -6 54.166 -18 74.499s-29.333 35.5 -52 45.5s-46.5 17 -71.5 21s-53.833 6 -86.5 6v-548z" />
    <glyph glyph-name="afii10039" unicode="&#x425;" horiz-adv-x="1343" 
d="M-6 0l407 723l-407 727h428l248 -496l254 496h426l-406 -727l406 -723h-426l-254 494l-248 -494h-428z" />
    <glyph glyph-name="afii10040" unicode="&#x426;" horiz-adv-x="1464" 
d="M115 0v1450h368v-1102h396v1102h368v-1102h176v-639h-348v291h-960z" />
    <glyph glyph-name="afii10041" unicode="&#x427;" horiz-adv-x="1308" 
d="M66 901l-0.00195312 549.002h368v-549c0 -46.667 13.833 -82.834 41.5 -108.501s66.5 -39.167 116.5 -40.5c45.333 0 89 5.83301 131 17.5s75.333 28.834 100 51.501l2 629h369v-1450h-369v485c-25.333 -22 -62.166 -41.167 -110.499 -57.5s-99.5 -24.5 -153.5 -24.5
c-65.333 0 -127.333 10.667 -186 32s-111.167 52.166 -157.5 92.499s-83.166 92.666 -110.499 156.999s-41 136.5 -41 216.5z" />
    <glyph glyph-name="afii10042" unicode="&#x428;" horiz-adv-x="2023" 
d="M115 0v1450h368v-1102h344v1102h369v-1102h344v1102h369v-1450h-1794z" />
    <glyph glyph-name="afii10043" unicode="&#x429;" horiz-adv-x="2125" 
d="M115 0v1450h368v-1102h344v1102h369v-1102h344v1102h369v-1102h176v-639h-348v291h-1622z" />
    <glyph glyph-name="afii10044" unicode="&#x42a;" horiz-adv-x="1462" 
d="M35 1102v347.997h645v-494h217c96 0 178.167 -10.667 246.5 -32s122.333 -52.666 162 -93.999s68.5 -89.166 86.5 -143.499s27 -117.166 27 -188.499c0 -146 -46 -265.5 -138 -358.5s-216.667 -139.5 -374 -139.5h-596v1102h-276zM680 321.997l217.001 0.000976562
c30 0 55.833 5 77.5 15s38.5 23.667 50.5 41s20.667 36.166 26 56.499s8 42.833 8 67.5c0 52.667 -14.333 93.167 -43 121.5s-68.334 42.5 -119.001 42.5h-217v-344z" />
    <glyph glyph-name="afii10045" unicode="&#x42b;" horiz-adv-x="1873" 
d="M115 0l-0.000976562 1450h368v-494h217c96 0 178.333 -10.667 247 -32s122.834 -52.666 162.501 -93.999s68.5 -89.166 86.5 -143.499s27 -117.166 27 -188.499c0 -146 -46 -265.5 -138 -358.5s-216.667 -139.5 -374 -139.5h-596zM482.999 321.997l217.001 0.000976562
c30 0 55.833 5 77.5 15s38.5 23.667 50.5 41s20.667 36.166 26 56.499s8 42.833 8 67.5c0 52.667 -14.333 93.167 -43 121.5s-68.334 42.5 -119.001 42.5h-217v-344zM1393 -0.00195312v1450h366v-1450h-366z" />
    <glyph glyph-name="afii10046" unicode="&#x42c;" horiz-adv-x="1265" 
d="M115 0l-0.000976562 1450h368v-494h217c96 0 178.333 -10.667 247 -32s122.834 -52.666 162.501 -93.999s68.5 -89.166 86.5 -143.499s27 -117.166 27 -188.499c0 -146 -46 -265.5 -138 -358.5s-216.667 -139.5 -374 -139.5h-596zM482.999 321.997l217.001 0.000976562
c30 0 55.833 5 77.5 15s38.5 23.667 50.5 41s20.667 36.166 26 56.499s8 42.833 8 67.5c0 52.667 -14.333 93.167 -43 121.5s-68.334 42.5 -119.001 42.5h-217v-344z" />
    <glyph glyph-name="afii10047" unicode="&#x42d;" 
d="M29 307l319 148c17.333 -43.333 45.333 -75.333 84 -96s81.667 -31 129 -31c53.333 1.33301 99.166 15.333 137.499 42s57.5 62.334 57.5 107.001v103h-322v305h322v86c0 48 -20.333 86.167 -61 114.5s-88.667 42.5 -144 42.5c-45.333 0 -87.666 -9.83301 -126.999 -29.5
s-69.333 -48.5 -90 -86.5l-299 121c28 62 62.333 115.667 103 161s84 80.333 130 105s91.833 42.667 137.5 54s92.167 17 139.5 17c58.667 0 116 -6.66699 172 -20s108.5 -33.833 157.5 -61.5s92 -61 129 -100s66.333 -85.667 88 -140s32.5 -113.5 32.5 -177.5v-494
c0 -64 -10.667 -123.333 -32 -178s-50.5 -101.334 -87.5 -140.001s-80 -71.667 -129 -99s-100.833 -47.5 -155.5 -60.5s-111 -19.5 -169 -19.5c-47.333 0 -94.666 6.16699 -141.999 18.5s-94.333 31 -141 56s-90.834 59.167 -132.501 102.5s-77.167 93.333 -106.5 150z" />
    <glyph glyph-name="afii10048" unicode="&#x42e;" horiz-adv-x="1994" 
d="M111 0v1450h368v-551h230v74c0 80.667 17.167 153.334 51.5 218.001s80 116.834 137 156.501s121 70 192 91s144.833 31.5 221.5 31.5c61.333 0 120.833 -6.5 178.5 -19.5s112.334 -33.167 164.001 -60.5s96.834 -60.166 135.501 -98.499s69.334 -84.833 92.001 -139.5
s34 -114.334 34 -179.001v-496c0 -64.667 -11.167 -124.334 -33.5 -179.001s-52.833 -101.334 -91.5 -140.001s-83.667 -71.5 -135 -98.5s-105.833 -47 -163.5 -60s-117.167 -19.5 -178.5 -19.5s-120.833 6.5 -178.5 19.5s-112.334 33.167 -164.001 60.5
s-96.834 60.166 -135.501 98.499s-69.334 84.833 -92.001 139.5s-34 114.334 -34 179.001v86h-230v-563h-368zM1077 485c0 -49.333 23.167 -87.833 69.5 -115.5s101.166 -41.5 164.499 -41.5c64 0 119.167 13.667 165.5 41s69.5 66 69.5 116v473
c0 52 -23.167 92.333 -69.5 121s-101.5 43 -165.5 43c-63.333 -1.33301 -118.166 -16.5 -164.499 -45.5s-69.5 -68.5 -69.5 -118.5v-473z" />
    <glyph glyph-name="afii10049" unicode="&#x42f;" horiz-adv-x="1323" 
d="M-66 0l442.999 524c-44 15.333 -82.667 34 -116 56s-64 50.167 -92 84.5s-49.5 77.5 -64.5 129.5s-22.5 111.667 -22.5 179c4 152 54.333 269.5 151 352.5s229.334 124.5 398.001 124.5h577v-1450h-368v487h-60l-389 -487h-457zM450.999 944
c0 -49.333 14.8311 -89.667 44.498 -121s72.834 -47 129.501 -47h215v326h-215c-55.333 0 -98.166 -13.833 -128.499 -41.5s-45.5 -66.5 -45.5 -116.5z" />
    <glyph glyph-name="afii10065" unicode="&#x430;" horiz-adv-x="1327" 
d="M-12 0l506 1450h333l519 -1450h-394l-94 291h-387l-90 -291h-393zM553 616h217l-100 424h-11z" />
    <glyph glyph-name="afii10066" unicode="&#x431;" horiz-adv-x="1261" 
d="M115 0v1450h991v-307h-623v-225h213c80 0 150 -6.33301 210 -19s110.167 -30.667 150.5 -54s73 -53.5 98 -90.5s43 -78.333 54 -124s16.5 -98.167 16.5 -157.5c0 -145.333 -46.167 -260.5 -138.5 -345.5s-218.833 -127.5 -379.5 -127.5h-592zM483 322h213
c59.333 0 101.833 14.667 127.5 44s38.5 71.333 38.5 126c0 106 -56 159 -168 159h-211v-329z" />
    <glyph glyph-name="afii10067" unicode="&#x432;" horiz-adv-x="1282" 
d="M115 0v1450h581c92 0 174 -17.333 246 -52s128.167 -85.834 168.5 -153.501s59.166 -146.5 56.499 -236.5c-1.33301 -40 -14.666 -83.333 -39.999 -130s-61.666 -82 -108.999 -106c38 -19.333 71.167 -42.333 99.5 -69s49.666 -54 63.999 -82s25.833 -57.167 34.5 -87.5
s12.5 -58.5 11.5 -84.5s-2.5 -50.667 -4.5 -74c-40 -250 -212 -375 -516 -375h-592zM483 322.001h212.999c42 0 77.167 10.167 105.5 30.5s45.833 45 52.5 74s6.5 58 -0.5 87s-24.667 53.667 -53 74s-63.166 30.5 -104.499 30.5h-213v-296zM482.999 883.001h212.998
c28.667 0 53.5 6.33301 74.5 19s36.333 28.667 46 48s14.667 40 15 62s-4.16699 42.667 -13.5 62s-24.666 35.333 -45.999 48s-46.666 19 -75.999 19h-213v-258z" />
    <glyph glyph-name="afii10068" unicode="&#x433;" horiz-adv-x="1044" 
d="M115 0v1450h903v-348h-535v-1102h-368z" />
    <glyph glyph-name="afii10069" unicode="&#x434;" horiz-adv-x="1478" 
d="M33 -291v621h131l379 1120h387l391 -1120h127v-621h-373v291h-669v-291h-373zM563 330h352l-100 391l-72 319h-8l-63 -323z" />
    <glyph glyph-name="afii10070" unicode="&#x435;" 
d="M115 0v1450h1009v-344h-639v-225h588v-318h-588v-217h639v-346h-1009z" />
    <glyph glyph-name="afii10072" unicode="&#x436;" horiz-adv-x="1941" 
d="M-18 1450h442l362 -543v543h369v-543l363 543h442l-518 -713l516 -737h-457l-334 549l-12 -17v-532h-369v532l-12 17l-334 -549h-456l516 737z" />
    <glyph glyph-name="afii10073" unicode="&#x437;" horiz-adv-x="1167" 
d="M-2 264l233.002 182.002c40.667 -45.333 85.667 -80.833 135 -106.5s96.666 -38.5 141.999 -38.5c74.667 0 132.167 13.167 172.5 39.5s60.5 65.166 60.5 116.499c0 52 -16.5 92.667 -49.5 122s-79.167 44 -138.5 44h-215v251h207c54.667 0 97.334 13.333 128.001 40
s46 64 46 112c0 42 -15.667 75.333 -47 100s-77 37 -137 37c-46.667 0 -94.334 -10.833 -143.001 -32.5s-89.334 -44.834 -122.001 -69.501l-192 188c120 147.333 281 221 483 221c160 0 283.333 -36.667 370 -110s130 -176.333 130 -309
c0 -51.333 -14.167 -104.5 -42.5 -159.5s-66.833 -94.833 -115.5 -119.5c71.333 -36 123.666 -83.833 156.999 -143.5s50 -124.5 50 -194.5c0 -143.333 -51.167 -254.833 -153.5 -334.5s-245.166 -119.5 -428.499 -119.5c-112 0 -214.667 25 -308 75
s-167.333 119.667 -222 209z" />
    <glyph glyph-name="afii10074" unicode="&#x438;" horiz-adv-x="1402" 
d="M115 0v1450h368v-657l-30 -218l8 -2l121 261l370 616h336v-1450h-368v580l36 272l-10 2l-137 -283l-348 -571h-346z" />
    <glyph glyph-name="afii10075" unicode="&#x439;" horiz-adv-x="1402" 
d="M115 0v1450h368v-657l-30 -218l8 -2l121 261l370 616h336v-1450h-368v580l36 272l-10 2l-137 -283l-348 -571h-346zM322 1925l284.001 -0.000976562c0 -25.333 8.16699 -45.666 24.5 -60.999s36.833 -23 61.5 -23s45.167 7.66699 61.5 23s24.5 35.666 24.5 60.999h285
c0 -75.333 -18 -140.666 -54 -195.999s-81.5 -95.833 -136.5 -121.5s-115.167 -38.5 -180.5 -38.5c-48 0 -94 7.66699 -138 23s-83.333 37.333 -118 66s-62.334 66 -83.001 112s-31 97.667 -31 155z" />
    <glyph glyph-name="afii10076" unicode="&#x43a;" horiz-adv-x="1310" 
d="M115 0v1450h368v-537l394 537h456l-573 -713l571 -737h-461l-374 518l-13 -16v-502h-368z" />
    <glyph glyph-name="afii10077" unicode="&#x43b;" horiz-adv-x="1298" 
d="M-10 0l487 1450h338l500 -1450h-393l-183 616l-84 424h-12l-88 -424l-172 -616h-393z" />
    <glyph glyph-name="afii10078" unicode="&#x43c;" horiz-adv-x="1574" 
d="M115 0v1450h366l305 -709l308 709h366v-1450h-368l2 418l22 293l-12 2l-191 -498h-251l-195 498l-10 -2l24 -293v-418h-366z" />
    <glyph glyph-name="afii10079" unicode="&#x43d;" horiz-adv-x="1384" 
d="M115 0v1450h368v-549h418v549h369v-1450h-369v547h-418v-547h-368z" />
    <glyph glyph-name="afii10080" unicode="&#x43e;" horiz-adv-x="1361" 
d="M80 477v496.002c0 64.667 11.167 124.5 33.5 179.5s52.666 101.667 90.999 140s83.166 71 134.499 98s105.666 47 162.999 60s116.666 19.5 177.999 19.5s120.833 -6.5 178.5 -19.5s112.167 -33 163.5 -60s96.333 -59.833 135 -98.5s69.167 -85.334 91.5 -140.001
s33.5 -114.334 33.5 -179.001v-496c0 -64.667 -11.167 -124.334 -33.5 -179.001s-52.666 -101.334 -90.999 -140.001s-83.166 -71.5 -134.499 -98.5s-105.666 -47 -162.999 -60s-116.666 -19.5 -177.999 -19.5s-120.833 6.5 -178.5 19.5s-112.167 33 -163.5 60
s-96.333 59.833 -135 98.5s-69.167 85.334 -91.5 140.001s-33.5 114.334 -33.5 179.001zM446 477.002c0 -50 23.332 -88.832 69.999 -116.499s102 -41.5 166 -41.5c63.333 0 118 14 164 42s69 66.667 69 116v496c0 36 -11.833 66.667 -35.5 92s-53.167 43.666 -88.5 54.999
s-73.666 17 -114.999 17c-61.333 0 -115 -14.833 -161 -44.5s-69 -69.5 -69 -119.5v-496z" />
    <glyph glyph-name="afii10081" unicode="&#x43f;" horiz-adv-x="1374" 
d="M115 0v1450h1145v-1450h-369v1102h-408v-1102h-368z" />
    <glyph glyph-name="afii10082" unicode="&#x440;" horiz-adv-x="1265" 
d="M115 0l0.000976562 1450h579c68.667 0 132.167 -9.5 190.5 -28.5s108.166 -45 149.499 -78s76.5 -71.333 105.5 -115s50.5 -90 64.5 -139s21 -99.5 21 -151.5c0 -66 -11.333 -129.167 -34 -189.5s-55.5 -115 -98.5 -164s-98.667 -88 -167 -117
s-144.833 -43.5 -229.5 -43.5h-215v-424h-366zM481.001 750l213 -0.000976562c30 0 57 6.5 81 19.5s42.167 30 54.5 51s21.333 44.333 27 70s5.66699 51.334 0 77.001s-14.667 49 -27 70s-30.5 38 -54.5 51s-51 19.5 -81 19.5h-213v-358z" />
    <glyph glyph-name="afii10083" unicode="&#x441;" horiz-adv-x="1191" 
d="M80 475l0.00195312 500c0 79.333 16.333 151 49 215s76.334 116 131.001 156s116 70.667 184 92s139 32 213 32c47.333 0 93.666 -5.5 138.999 -16.5s91.166 -28.5 137.499 -52.5s89.833 -58.5 130.5 -103.5s75 -98.5 103 -160.5l-299 -121
c-23.333 42.667 -59 73.834 -107 93.501s-95 27 -141 22s-86.5 -21.5 -121.5 -49.5s-52.5 -63.667 -52.5 -107v-500c0 -33.333 11.5 -62.833 34.5 -88.5s51.833 -43.167 86.5 -52.5s70.667 -12.833 108 -10.5s72.666 15 105.999 38s57.666 53.5 72.999 91.5l320 -148
c-29.333 -56.667 -64.833 -106.5 -106.5 -149.5s-86 -77 -133 -102s-94.167 -43.5 -141.5 -55.5s-94.666 -18 -141.999 -18c-72.667 0 -142.667 10.5 -210 31.5s-128 51.5 -182 91.5s-97.333 92.167 -130 156.5s-49 136.166 -49 215.499z" />
    <glyph glyph-name="afii10084" unicode="&#x442;" horiz-adv-x="1198" 
d="M29 1104v348h1140v-348h-385v-1104h-370v1104h-385z" />
    <glyph glyph-name="afii10085" unicode="&#x443;" horiz-adv-x="1228" 
d="M-55 1450h415l144 -315l98 -263h10l109 283l131 295h408l-656 -1450h-395l213 469z" />
    <glyph glyph-name="afii10086" unicode="&#x444;" horiz-adv-x="1646" 
d="M53 600v250c0 67.333 11.167 128.166 33.5 182.499s52.166 99.833 89.499 136.5s81.666 67.334 132.999 92.001s105.333 42.5 162 53.5s116 16.5 178 16.5v119h348v-119c62 0 121.333 -5.5 178 -16.5s110.667 -28.833 162 -53.5s95.666 -55.334 132.999 -92.001
s67.166 -82.167 89.499 -136.5s33.5 -115.166 33.5 -182.499v-250c0 -67.333 -11.167 -128.166 -33.5 -182.499s-52.166 -99.833 -89.499 -136.5s-81.666 -67.334 -132.999 -92.001s-105.333 -42.5 -162 -53.5s-116 -16.5 -178 -16.5v-119h-348v119
c-62 0 -121.333 5.5 -178 16.5s-110.667 28.833 -162 53.5s-95.666 55.334 -132.999 92.001s-67.166 82.167 -89.499 136.5s-33.5 115.166 -33.5 182.499zM422 598c0 -56 20.5 -94.5 61.5 -115.5s96.167 -31.5 165.5 -31.5v548c-69.333 0 -124.5 -10.5 -165.5 -31.5
s-61.5 -59.5 -61.5 -115.5v-254zM997 451c32.667 0 61.5 2.00195 86.5 6.00195s48.833 11 71.5 21s40 25.167 52 45.5s18 45.166 18 74.499v254c0 29.333 -6 54.166 -18 74.499s-29.333 35.5 -52 45.5s-46.5 17 -71.5 21s-53.833 6 -86.5 6v-548z" />
    <glyph glyph-name="afii10087" unicode="&#x445;" horiz-adv-x="1343" 
d="M-6 0l407 723l-407 727h428l248 -496l254 496h426l-406 -727l406 -723h-426l-254 494l-248 -494h-428z" />
    <glyph glyph-name="afii10088" unicode="&#x446;" horiz-adv-x="1464" 
d="M115 0v1450h368v-1102h396v1102h368v-1102h176v-639h-348v291h-960z" />
    <glyph glyph-name="afii10089" unicode="&#x447;" horiz-adv-x="1308" 
d="M66 901l-0.00195312 549.002h368v-549c0 -46.667 13.833 -82.834 41.5 -108.501s66.5 -39.167 116.5 -40.5c45.333 0 89 5.83301 131 17.5s75.333 28.834 100 51.501l2 629h369v-1450h-369v485c-25.333 -22 -62.166 -41.167 -110.499 -57.5s-99.5 -24.5 -153.5 -24.5
c-65.333 0 -127.333 10.667 -186 32s-111.167 52.166 -157.5 92.499s-83.166 92.666 -110.499 156.999s-41 136.5 -41 216.5z" />
    <glyph glyph-name="afii10090" unicode="&#x448;" horiz-adv-x="2023" 
d="M115 0v1450h368v-1102h344v1102h369v-1102h344v1102h369v-1450h-1794z" />
    <glyph glyph-name="afii10091" unicode="&#x449;" horiz-adv-x="2125" 
d="M115 0v1450h368v-1102h344v1102h369v-1102h344v1102h369v-1102h176v-639h-348v291h-1622z" />
    <glyph glyph-name="afii10092" unicode="&#x44a;" horiz-adv-x="1462" 
d="M35 1102v347.997h645v-494h217c96 0 178.167 -10.667 246.5 -32s122.333 -52.666 162 -93.999s68.5 -89.166 86.5 -143.499s27 -117.166 27 -188.499c0 -146 -46 -265.5 -138 -358.5s-216.667 -139.5 -374 -139.5h-596v1102h-276zM680 321.997l217.001 0.000976562
c30 0 55.833 5 77.5 15s38.5 23.667 50.5 41s20.667 36.166 26 56.499s8 42.833 8 67.5c0 52.667 -14.333 93.167 -43 121.5s-68.334 42.5 -119.001 42.5h-217v-344z" />
    <glyph glyph-name="afii10093" unicode="&#x44b;" horiz-adv-x="1873" 
d="M115 0l-0.000976562 1450h368v-494h217c96 0 178.333 -10.667 247 -32s122.834 -52.666 162.501 -93.999s68.5 -89.166 86.5 -143.499s27 -117.166 27 -188.499c0 -146 -46 -265.5 -138 -358.5s-216.667 -139.5 -374 -139.5h-596zM482.999 321.997l217.001 0.000976562
c30 0 55.833 5 77.5 15s38.5 23.667 50.5 41s20.667 36.166 26 56.499s8 42.833 8 67.5c0 52.667 -14.333 93.167 -43 121.5s-68.334 42.5 -119.001 42.5h-217v-344zM1393 -0.00195312v1450h366v-1450h-366z" />
    <glyph glyph-name="afii10094" unicode="&#x44c;" horiz-adv-x="1265" 
d="M115 0l-0.000976562 1450h368v-494h217c96 0 178.333 -10.667 247 -32s122.834 -52.666 162.501 -93.999s68.5 -89.166 86.5 -143.499s27 -117.166 27 -188.499c0 -146 -46 -265.5 -138 -358.5s-216.667 -139.5 -374 -139.5h-596zM482.999 321.997l217.001 0.000976562
c30 0 55.833 5 77.5 15s38.5 23.667 50.5 41s20.667 36.166 26 56.499s8 42.833 8 67.5c0 52.667 -14.333 93.167 -43 121.5s-68.334 42.5 -119.001 42.5h-217v-344z" />
    <glyph glyph-name="afii10095" unicode="&#x44d;" 
d="M29 307l319 148c17.333 -43.333 45.333 -75.333 84 -96s81.667 -31 129 -31c53.333 1.33301 99.166 15.333 137.499 42s57.5 62.334 57.5 107.001v103h-322v305h322v86c0 48 -20.333 86.167 -61 114.5s-88.667 42.5 -144 42.5c-45.333 0 -87.666 -9.83301 -126.999 -29.5
s-69.333 -48.5 -90 -86.5l-299 121c28 62 62.333 115.667 103 161s84 80.333 130 105s91.833 42.667 137.5 54s92.167 17 139.5 17c58.667 0 116 -6.66699 172 -20s108.5 -33.833 157.5 -61.5s92 -61 129 -100s66.333 -85.667 88 -140s32.5 -113.5 32.5 -177.5v-494
c0 -64 -10.667 -123.333 -32 -178s-50.5 -101.334 -87.5 -140.001s-80 -71.667 -129 -99s-100.833 -47.5 -155.5 -60.5s-111 -19.5 -169 -19.5c-47.333 0 -94.666 6.16699 -141.999 18.5s-94.333 31 -141 56s-90.834 59.167 -132.501 102.5s-77.167 93.333 -106.5 150z" />
    <glyph glyph-name="afii10096" unicode="&#x44e;" horiz-adv-x="1994" 
d="M111 0v1450h368v-551h230v74c0 80.667 17.167 153.334 51.5 218.001s80 116.834 137 156.501s121 70 192 91s144.833 31.5 221.5 31.5c61.333 0 120.833 -6.5 178.5 -19.5s112.334 -33.167 164.001 -60.5s96.834 -60.166 135.501 -98.499s69.334 -84.833 92.001 -139.5
s34 -114.334 34 -179.001v-496c0 -64.667 -11.167 -124.334 -33.5 -179.001s-52.833 -101.334 -91.5 -140.001s-83.667 -71.5 -135 -98.5s-105.833 -47 -163.5 -60s-117.167 -19.5 -178.5 -19.5s-120.833 6.5 -178.5 19.5s-112.334 33.167 -164.001 60.5
s-96.834 60.166 -135.501 98.499s-69.334 84.833 -92.001 139.5s-34 114.334 -34 179.001v86h-230v-563h-368zM1077 485c0 -49.333 23.167 -87.833 69.5 -115.5s101.166 -41.5 164.499 -41.5c64 0 119.167 13.667 165.5 41s69.5 66 69.5 116v473
c0 52 -23.167 92.333 -69.5 121s-101.5 43 -165.5 43c-63.333 -1.33301 -118.166 -16.5 -164.499 -45.5s-69.5 -68.5 -69.5 -118.5v-473z" />
    <glyph glyph-name="afii10097" unicode="&#x44f;" horiz-adv-x="1323" 
d="M-66 0l442.999 524c-44 15.333 -82.667 34 -116 56s-64 50.167 -92 84.5s-49.5 77.5 -64.5 129.5s-22.5 111.667 -22.5 179c4 152 54.333 269.5 151 352.5s229.334 124.5 398.001 124.5h577v-1450h-368v487h-60l-389 -487h-457zM450.999 944
c0 -49.333 14.8311 -89.667 44.498 -121s72.834 -47 129.501 -47h215v326h-215c-55.333 0 -98.166 -13.833 -128.499 -41.5s-45.5 -66.5 -45.5 -116.5z" />
    <glyph glyph-name="afii10071" unicode="&#x451;" 
d="M115 0v1450h1009v-344h-639v-225h588v-318h-588v-217h639v-346h-1009zM213 1708c0 48.667 16.667 89.834 50 123.501s74 50.5 122 50.5s88.667 -16.833 122 -50.5s50 -74.834 50 -123.501c0 -47.333 -16.667 -87.5 -50 -120.5s-74 -49.5 -122 -49.5
s-88.667 16.5 -122 49.5s-50 73.167 -50 120.5zM707 1708c0 49.333 16.333 90.666 49 123.999s73.667 50 123 50c48.667 0 89.834 -16.667 123.501 -50s50.5 -74.666 50.5 -123.999c0 -47.333 -16.833 -87.5 -50.5 -120.5s-74.834 -49.5 -123.501 -49.5
c-49.333 0 -90.333 16.5 -123 49.5s-49 73.167 -49 120.5z" />
    <glyph glyph-name="uni2000" unicode="&#x2000;" horiz-adv-x="1021" 
 />
    <glyph glyph-name="uni2001" unicode="&#x2001;" horiz-adv-x="2042" 
 />
    <glyph glyph-name="uni2002" unicode="&#x2002;" horiz-adv-x="1021" 
 />
    <glyph glyph-name="uni2003" unicode="&#x2003;" horiz-adv-x="2042" 
 />
    <glyph glyph-name="uni2004" unicode="&#x2004;" horiz-adv-x="680" 
 />
    <glyph glyph-name="uni2005" unicode="&#x2005;" horiz-adv-x="510" 
 />
    <glyph glyph-name="uni2006" unicode="&#x2006;" horiz-adv-x="340" 
 />
    <glyph glyph-name="uni2007" unicode="&#x2007;" horiz-adv-x="340" 
 />
    <glyph glyph-name="uni2008" unicode="&#x2008;" horiz-adv-x="255" 
 />
    <glyph glyph-name="uni2009" unicode="&#x2009;" horiz-adv-x="408" 
 />
    <glyph glyph-name="uni200A" unicode="&#x200a;" horiz-adv-x="113" 
 />
    <glyph glyph-name="uni2010" unicode="&#x2010;" horiz-adv-x="827" 
d="M94 420v348h639v-348h-639z" />
    <glyph glyph-name="uni2011" unicode="&#x2011;" horiz-adv-x="827" 
d="M94 420v348h639v-348h-639z" />
    <glyph glyph-name="figuredash" unicode="&#x2012;" horiz-adv-x="827" 
d="M94 420v348h639v-348h-639z" />
    <glyph glyph-name="endash" unicode="&#x2013;" horiz-adv-x="1169" 
d="M94 420v346h981v-346h-981z" />
    <glyph glyph-name="emdash" unicode="&#x2014;" horiz-adv-x="1777" 
d="M94 420v346h1589v-346h-1589z" />
    <glyph glyph-name="quoteleft" unicode="&#x2018;" horiz-adv-x="634" 
d="M47 1008l232 444h321l-139 -444h-414z" />
    <glyph glyph-name="quoteright" unicode="&#x2019;" horiz-adv-x="612" 
d="M59 1024l119 422h414l-211 -422h-322z" />
    <glyph glyph-name="quotesinglbase" unicode="&#x201a;" horiz-adv-x="604" 
d="M-18 -213l151 449h399l-239 -449h-311z" />
    <glyph glyph-name="quotedblleft" unicode="&#x201c;" horiz-adv-x="1114" 
d="M47 1008l232 444h321l-139 -444h-414zM526 1008l232 444h321l-139 -444h-414z" />
    <glyph glyph-name="quotedblright" unicode="&#x201d;" horiz-adv-x="1085" 
d="M59 1024l119 422h414l-211 -422h-322zM532 1024l119 422h414l-211 -422h-322z" />
    <glyph glyph-name="quotedblbase" unicode="&#x201e;" horiz-adv-x="1058" 
d="M-20 -213l151 426h399l-239 -426h-311zM438 -213l150 426h401l-239 -426h-312z" />
    <glyph glyph-name="bullet" unicode="&#x2022;" horiz-adv-x="860" 
d="M98 678c0 91.333 32.5 169.5 97.5 234.5s143.833 97.5 236.5 97.5c90.667 0 168.334 -32.5 233.001 -97.5s97 -143.167 97 -234.5c0 -92 -32.333 -170.667 -97 -236s-142.334 -98 -233.001 -98c-92.667 0 -171.5 32.667 -236.5 98s-97.5 144 -97.5 236z" />
    <glyph glyph-name="ellipsis" unicode="&#x2026;" horiz-adv-x="1607" 
d="M59 195c0 56.667 19.832 104.499 59.499 143.499s88.834 58.5 147.501 58.5c56.667 0 104.667 -19.5 144 -58.5s59 -86.833 59 -143.5c0 -57.333 -19.667 -106.166 -59 -146.499s-87.333 -60.5 -144 -60.5c-58 0 -107 20 -147 60s-60 89 -60 147zM601.999 194.999
c0 56.667 19.332 104.501 57.999 143.501s86.334 58.5 143.001 58.5c58.667 0 107.834 -19.5 147.501 -58.5s59.5 -86.833 59.5 -143.5c0 -58 -20 -107 -60 -147s-89 -60 -147 -60c-56.667 0 -104.334 20.167 -143.001 60.5s-58 89.166 -58 146.499zM1141 195
c0 56.667 19.333 104.5 58 143.5s86.667 58.5 144 58.5c59.333 0 108.333 -19.5 147 -58.5s58 -86.833 58 -143.5c0 -58 -19.5 -107 -58.5 -147s-87.833 -60 -146.5 -60c-57.333 0 -105.333 20 -144 60s-58 89 -58 147z" />
    <glyph glyph-name="uni202F" unicode="&#x202f;" horiz-adv-x="408" 
 />
    <glyph glyph-name="guilsinglleft" unicode="&#x2039;" horiz-adv-x="722" 
d="M39 588l328 487l295 -178l-211 -307l107 -160.5l104 -157.5l-297 -174z" />
    <glyph glyph-name="guilsinglright" unicode="&#x203a;" horiz-adv-x="722" 
d="M59 272l211 316l-209 309l297 176l326 -485l-322 -488z" />
    <glyph glyph-name="uni205F" unicode="&#x205f;" horiz-adv-x="510" 
 />
    <glyph glyph-name="Euro" unicode="&#x20ac;" horiz-adv-x="1320" 
d="M51 457l45.001 220.995h82v63h-127l45 222h82v8c0 79.333 16 151.166 48 215.499s75 116.833 129 157.5s114.833 71.834 182.5 93.501s138.5 32.5 212.5 32.5c47.333 0 93.833 -5.66699 139.5 -17s91.5 -29.333 137.5 -54s89.333 -59.667 130 -105s75 -99 103 -161
l-299 -121c-23.333 42.667 -59 73.834 -107 93.501s-95 27 -141 22s-86.5 -21.5 -121.5 -49.5s-52.5 -63.667 -52.5 -107v-8h364l-47 -222h-317v-63h364l-47 -221h-315c4.66699 -30.667 19.167 -57.167 43.5 -79.5s53.5 -37.333 87.5 -45s68.833 -9.66699 104.5 -6
s69.167 16.834 100.5 39.501s54.333 52.334 69 89.001l320 -148c-56.667 -110 -132.834 -192 -228.501 -246s-193.834 -81 -294.501 -81c-71.333 0 -139.666 10.167 -204.999 30.5s-124.5 49.833 -177.5 88.5s-96 88.834 -129 150.501s-50.833 130.834 -53.5 207.501h-127z
" />
    <glyph glyph-name="trademark" unicode="&#x2122;" horiz-adv-x="1767" 
d="M59 1120v332h703v-332h-184v-528h-338v528h-181zM821 596v856h281l141 -270l146 270h272v-856h-305l6 244l-86 -150h-51l-92 152l4 -246h-316z" />
    <glyph glyph-name="uni25FC" unicode="&#x25fc;" horiz-adv-x="1454" 
d="M0 0v1454h1454v-1454h-1454z" />
    </font>
</defs>
</svg>
